<svg id="Ebene_1" data-name="Ebene 1" xmlns="http://www.w3.org/2000/svg" viewBox="0 0 265.81 313.39"><defs><style>.cls-1{fill:#333;}</style></defs><title>company</title><path class="cls-1" d="M350.17,102.48v-.05H350L306.36,90.53l-43.78-12-43.81,12-43.6,11.89H175v.05h0V253.84H153.58L140.71,27.61H120.31L107.48,253.84H84.36V341H350.17V102.48ZM216.81,268.8H200.16V235.14h16.65Zm0-48.57H200.16v-33.7h16.65Zm0-48.63H200.16V138h16.65Zm52.81,97.2H253V235.14h16.6Zm0-48.57H253v-33.7h16.6Zm0-48.63H253V138h16.6Zm52.81,97.2h-16.6V235.14h16.6Zm0-48.57h-16.6v-33.7h16.6Zm0-48.63h-16.6V138h16.6Z" transform="translate(-84.36 -27.61)"/></svg>