<svg xmlns="http://www.w3.org/2000/svg" viewBox="0 0 344.34 344.32"><defs><style>.cls-1{isolation:isolate;}.cls-2{mix-blend-mode:multiply;}.cls-3{fill:#333;}</style></defs><title>discount</title><g class="cls-1"><g id="Ebene_1" data-name="Ebene 1"><g class="cls-2"><path class="cls-3" d="M146.77,89.77c33.7,0,52.87,25,52.87,59,0,41-26.13,62.56-54.75,62.56-30.09,0-53.8-22.44-53.8-59.61,0-35.22,21.58-62,55.28-62ZM145.49,115c-13.69,0-19.78,15.77-19.78,35.81-.28,20.66,7,35.49,20.39,35.49,13.07,0,19.44-13.31,19.44-35.81,0-20-5.41-35.5-19.73-35.5Zm1.57,179,113.62-204h24.65l-113.41,204ZM289,171.77c33.71,0,52.89,24.73,52.89,58.42,0,41.28-26.12,63.31-54.75,63.31-29.77,0-53.46-22.61-53.46-60,0-35.26,21.53-61.73,55-61.73Zm-1,25c-13.62,0-19.72,15.77-19.72,35.79-.29,20.68,7,35.67,20,35.67s19.48-13.41,19.48-35.94c0-20.07-5.41-35.51-19.48-35.51Z" transform="translate(-44.32 -19.68)"/><path class="cls-3" d="M336.28,19.68H96.59A52.43,52.43,0,0,0,44.32,72V311.64A52.32,52.32,0,0,0,96.59,364H336.28a52.35,52.35,0,0,0,52.37-52.36V72A52.46,52.46,0,0,0,336.28,19.68Zm0,319.63H96.59a27.59,27.59,0,0,1-27.45-27.68V72a27.54,27.54,0,0,1,27.45-27.5H336.28A27.51,27.51,0,0,1,363.76,72V311.64A27.56,27.56,0,0,1,336.28,339.31Z" transform="translate(-44.32 -19.68)"/></g></g></g></svg>