<svg id="Ebene_1" data-name="Ebene 1" xmlns="http://www.w3.org/2000/svg" viewBox="0 0 435 384"><defs><style>.cls-1,.cls-3{fill:#333;}.cls-2{fill:#e0e0e0;}.cls-3{stroke:#e0e0e0;stroke-miterlimit:10;stroke-width:1.04px;}</style></defs><title>footprint</title><path class="cls-1" d="M284,75c18.18,10.1,57.53,32.17,73.84,69.92,8,18.48-3,39.7-17.54,45.76-16,6.63-55.52-.11-60.21-1-17.75-3.56-28.81-4.92-46.36-1.19-38.58,11-48.44,41.48-71.27,71.15-20,25.08-50.24,61.58-88.58,56.86-40-5.12-56.44-50.4-43.33-79.74,17.76-37.89,62.15-60.88,100.73-71.89,28.06-7.37,58.32-25.45,82.11-44.36,2.37-2,27.51-35.58,40.25-43.43C261,72.51,271.79,70,284,75"/><path class="cls-2" d="M283.74,75.48c23.15,12.86,45.8,27.86,61.8,49.4,10.4,14,19,30.67,11.25,48-3.15,7.05-8.56,13.57-15.64,16.9-5.84,2.74-12.68,3.14-19,3.28a205.56,205.56,0,0,1-36.66-3c-13-2.05-25.53-5.13-38.77-4.06A73.31,73.31,0,0,0,206,202.14c-10.76,8.74-18.75,20.2-26.34,31.66-16.63,25.11-34.93,51.27-60,68.77-12.78,8.94-27.84,15-43.67,13.62a52.07,52.07,0,0,1-36.44-19.69A61.83,61.83,0,0,1,26.65,260c-.34-14.09,4.87-26.39,13-37.7,19-26.36,49.64-42.9,79.77-53.22,7.6-2.6,15.41-4.49,23-7.14a194.6,194.6,0,0,0,23.92-10.34,268.49,268.49,0,0,0,46.08-29.72c6.68-5.36,11.67-13.6,17.18-20.1,7.35-8.69,15.33-19.3,25.43-25,9-5.07,19.32-5,28.84-1.32.62.24.89-.76.28-1-14.06-5.39-27.36-2.05-38.12,8-9.62,9-17.93,19.35-26.22,29.52a101.73,101.73,0,0,1-6.66,8C206.38,126.75,197,132.2,189,137.35c-17.2,11.08-35.75,20.78-55.52,26.36-30.87,8.71-61.83,22.67-84.5,46-9.69,10-18.81,22.3-22,36.05a61.81,61.81,0,0,0,3,35.92c9.8,25.12,35.33,40.08,62.08,34.6,30.23-6.2,52.75-33.13,70.77-56.26,19.72-25.31,32.73-57.23,65-69.06,17.77-6.51,35.62-3.71,53.68-.47a228.38,228.38,0,0,0,33.78,3.6c11.84.33,24.55,0,33.72-8.47,10.74-9.94,15-26.36,9.59-40.07-11-27.64-36-48.06-60.72-63.08-4.49-2.73-9.06-5.31-13.64-7.86-.58-.32-1.11.57-.52.9Z"/><ellipse class="cls-3" cx="396.88" cy="131.67" rx="30.41" ry="20.58" transform="translate(-10.07 227.8) rotate(-31.64)"/><path class="cls-3" d="M377.44,108.67c-8.56,5.27-19.91,5.78-23.48,0s.48-14.76,9-20,18.39-4.86,22,.93S386,103.4,377.44,108.67Z"/><ellipse class="cls-3" cx="346.31" cy="78.44" rx="16.68" ry="11.29" transform="translate(10.33 193.35) rotate(-31.64)"/><ellipse class="cls-3" cx="320.92" cy="61.52" rx="15.17" ry="10.26" transform="translate(15.44 177.53) rotate(-31.65)"/><ellipse class="cls-3" cx="296.54" cy="49.95" rx="13.65" ry="9.24" transform="translate(17.88 163) rotate(-31.64)"/></svg>