<svg xmlns="http://www.w3.org/2000/svg" viewBox="0 0 363.99 336.66"><defs><style>.cls-1{isolation:isolate;}.cls-2{mix-blend-mode:multiply;}.cls-3{fill:#333;}</style></defs><title>ingredients</title><g class="cls-1"><g id="Ebene_1" data-name="Ebene 1"><g class="cls-2"><path class="cls-3" d="M348,360H115a51.87,51.87,0,0,1-51.87-51.91V75.25A51.88,51.88,0,0,1,115,23.34H348a51.88,51.88,0,0,1,51.9,51.91V308.09A51.87,51.87,0,0,1,348,360ZM115,49.47A25.8,25.8,0,0,0,89.26,75.25V308.09A25.82,25.82,0,0,0,115,333.88H348a25.85,25.85,0,0,0,25.77-25.79V75.25A25.83,25.83,0,0,0,348,49.47Z" transform="translate(-35.88 -23.34)"/><polygon class="cls-3" points="79.48 237.82 60.02 237.82 0 237.82 0 245.8 60.34 245.8 60.34 253.76 0 253.76 0 261.91 60.02 261.91 79.48 261.91 82.42 261.91 82.42 237.82 79.48 237.82"/><polygon class="cls-3" points="79.48 195.72 60.02 195.72 0 195.72 0 203.75 60.34 203.75 60.34 211.8 0 211.8 0 219.72 60.02 219.72 79.48 219.72 82.42 219.72 82.42 195.72 79.48 195.72"/><polygon class="cls-3" points="79.48 153.65 60.02 153.65 0 153.65 0 159.69 60.34 159.69 60.34 167.66 0 167.66 0 175.64 60.02 175.64 79.48 175.64 82.42 175.64 82.42 153.65 79.48 153.65"/><polygon class="cls-3" points="79.48 109.57 60.02 109.57 0 109.57 0 117.54 60.34 117.54 60.34 125.5 0 125.5 0 133.67 60.02 133.67 79.48 133.67 82.42 133.67 82.42 109.57 79.48 109.57"/><polygon class="cls-3" points="79.48 67.44 60.02 67.44 0 67.44 0 75.51 60.34 75.51 60.34 83.57 0 83.57 0 89.55 60.02 89.55 79.48 89.55 82.42 89.55 82.42 67.44 79.48 67.44"/><rect class="cls-3" x="127.2" y="249.22" width="163.48" height="9.97"/><rect class="cls-3" x="127.2" y="205.14" width="163.48" height="9.97"/><rect class="cls-3" x="127.2" y="161.06" width="163.48" height="9.93"/><rect class="cls-3" x="127.2" y="116.94" width="163.48" height="10.08"/><rect class="cls-3" x="127.2" y="72.84" width="163.48" height="10.08"/></g></g></g></svg>