<svg id="Ebene_1" data-name="Ebene 1" xmlns="http://www.w3.org/2000/svg" viewBox="0 0 1243 631.69"><defs><style>.cls-1{fill:#e0dcc7;}.cls-1,.cls-2,.cls-3{fill-rule:evenodd;}.cls-2{fill:#ee7d00;}.cls-3{fill:#89ceda;}.cls-12,.cls-13,.cls-4,.cls-5,.cls-6,.cls-7{fill:none;stroke:#000;stroke-miterlimit:10;stroke-width:2px;}.cls-5{stroke-dasharray:3.8 3.8;}.cls-6{stroke-dasharray:2;}.cls-7{stroke-dasharray:1.93 1.93;}.cls-8{font-size:25px;font-family:MyriadPro-Regular, Myriad Pro;}.cls-9{letter-spacing:-0.01em;}.cls-10{letter-spacing:0.01em;}.cls-11{letter-spacing:-0.03em;}.cls-12{stroke-dasharray:4;}.cls-13{stroke-dasharray:3.82 3.82;}</style></defs><title>wii</title><path class="cls-1" d="M724.07,505.49c0-.16-.22.45-.33.33l.33-.33ZM121.45,192.82l-1.13,1.13,1.13-1.13ZM781.37,482.1h0Zm298.32-40.68v0Zm21.48-3.39-1.13,1.13,1.13-1.13ZM87.55,427.86v0Zm987.62-2.26v0Zm-22.6-16.95v0Zm169.5-9h0ZM566.67,131.8v0ZM1100,130.67l-1.13,1.13,1.13-1.13Zm-186.45,0v0ZM418.64,368l-1.13,1.13,1.13-1.13Zm125.43-1.13v0ZM89.81,351l2.2,1.3-2.2-1.3Zm493.81-30.51v0Zm-1.13,1.13-1.13-1.13,1.13,1.13Zm1.13-4.52v0Zm-11.3-14.69v0Zm-29.37-20.34v0Zm93.78-4.52-1.13,1.13,1.13-1.13Zm507.37-26v0Zm83.63-29.38v0ZM49.13,219.94h0ZM295.47,131.8l.33-.33s-.44.22-.33.33Zm911.9,387.59.34-.34s-.45.23-.34.34ZM548.59,374.75l.34-.34s-.45.22-.34.34Zm657.66,122c.11.11.33-.49.34-.33h0s-.45.22-.34.33Zm-1.13-282.5v-1.13H1204l1.14,1.13Zm4.52,184.19-1.13-1.13v1.13ZM626.56,192.82v-1.13h-1.13l1.13,1.13ZM406.21,186h-1.13v1.13l1.13-1.13Zm767.27,276.85h0v-1.13h-1.13l1.13,1.13ZM681.93,212H680.8v1.13l1.13-1.13Zm493.81,256.51V467.4h-1.13l1.13,1.13Zm-940.16-348h-1.13v1.13l1.13-1.13ZM828.83,517.13l1.3-2.2-1.3,1.08v1.13Zm253.12-81.36h1.13l-2.2-1.3,1.08,1.3ZM453.67,558.94v1.13l1.32-.94-1.32-.19Zm631.67-92.66v-1.13l-1.13-1.13v1.13l1.13,1.13Zm64.41-215.83v-1.13h-1.13v1.13Zm-176.28,191v-2.26l-1.13,1.13,1.13,1.13Zm94.93-140.12v-1.13h-1.13v1.13ZM876.29,140.84v-1.13L874,140.84Zm322,57.63-1.13-1.13-1.32.94,2.45.19Zm-18.08,267.81,1.14,1.13h1.13l-1.13-1.13h-1.14v0ZM378,349.89v-1.13h-1.13v1.13Zm684.78,118.65-2.26-1.13v1.13Zm-4.52,0V467.4h-1.13v1.13Zm4.52-26v-1.13h-2.26l2.26,1.13Zm127.69,35h1.13l-1.13-1.13h-1.13l1.13,1.13Zm-22.6-245.21v1.13l2.26-2.26-2.26,1.13ZM952,383.79v-1.13h-1.13v1.13Zm309.62-157.07v-1.13h-1.13v1.13ZM645.77,274.18V273h-1.13v1.13ZM813,111.46v1.13l2.43-.62-2.43-.51ZM361,180.39h1.13v-1.13h-2.25l1.13,1.13Zm848.63,444.09h1.13v-2.26l-1.13,1.13v1.13ZM700,192.82v-1.13h-1.13l-1.13,1.13ZM342.93,347.63l2.2,1.3-1.08-2.43-1.13,1.13ZM78.51,346.5l2.2,1.3-1.07-2.43-1.13,1.13Zm497.2-26h-2.26l-.56,1.13,2.83-1.13Zm1.13,2.26H578l-2.2-1.3,1.08,1.3ZM816.4,384.92h1.14l1.31-.94-3.57-.19,1.13,1.13ZM361,336.33h1.13L361,334.07h-1.13l1.13,2.26ZM417.51,394h1.13l1.13-2.26h-1.13L417.51,394Zm550.31,37.29,1.13-1.13L967.82,429h-1.13l1.13,2.26ZM1139.58,255h1.13l1.13-1.13H1143l-1.13-1.13-2.25,2.26Zm-68.93,186.45c1.06,1.06,4.12-1.43,1.4-.65,0,0-3.29-1.25-1.4.65Zm-713-284.76-1.32.94c3.18-.6,1.12.28,3.58-.94l-1.13-1.13-1.13,1.13ZM1066.13,467.4h1.13l1.13-1.13-2.26-1.13v2.26Zm36.16,24.86,1.3-2.21-2.43-.06v1.13l1.13,1.13Zm108.48,7.91V499h-2.26v1.13c.9.8-1.3,2,2.26,0ZM1105.68,215.42h1.13c2-3.56.8-1.36,0-2.26h-1.13v2.26Zm1.13,362.73h-3.4l-.56,1.13c6.54,0,2.25,0,4-1.13Zm-12.44-117.52h1.13v-3.39h-1.13v3.39ZM1275.18,490h1.14v1.13h2.26V490h-2.26l-1.14-1.13H1274l1.13,1.13ZM52.52,218.81v1.13h1.13l1.13-1.13v-1.13H53.65l-1.13,1.13Zm219.22-85.88-1.13-2.26-2.48,2,3.62.23Zm731.11,311.88v1.13l2.21,1.3.05-2.43Zm55.37-57.63h1.13V386l-1.13-1.13L1056,386l2.26,1.13ZM288.69,113.72l1.13,1.13,1.3-2.21-3.56-.05v1.13ZM640.12,276.44h2.25v-2.26h-2.25v2.26Zm648.61-56.5-1.13,1.13v1.13l2.25-1.13,1.13-1.13-1.13-1.13-1.13,1.13ZM820.92,520.52h2.25v-2.26h-2.25v2.26Zm-35-409.06h3.39V109.2h-1.13c-.2.18-.45.46-.56.56l-1.7,1.7Zm-519.8,12.43h1.13l1.13,1.13h1.13v-1.13c-.2-.18-.5-.74-.59-.54s-.48-.43-.62-.51a13,13,0,0,0-2.18-1.21v2.26Zm980.84,377.42c1.51,1.15-2.38,1.13,3.39,1.13v-2.26h-2.26l-1.13,1.13ZM869.51,631.25v2.26h3.39l1.13-1.13v-1.13H872.9c-.2.27-2.26,3.75-2.26,0ZM502.26,652.73l1.13,1.13c1.65.92,1.2.55,3.39,1.13l-2.25-2.26-1.14-1.13h-2.26v1.13ZM314.68,436.9v2.26h2.26c-.3-3.5,0-2.14-1.13-4.52l-1.13,2.26ZM1080.82,481l-1.32.94,4.71.19v-2.26h-2.26l-1.13,1.13ZM692.1,203v2.26h2.26l1.13-1.13-1.13-2.26h-1.13L692.1,203Zm-339-15.82c3.4-.91,2.48,0,3.4-3.39h-3.4v3.39Zm715.3,259.9h-1.13l-1.3,2.2c3.37,1.54,1.49,1.54,4.69.06l-2.25-2.26ZM402.82,362.32v-2.26H398.3v2.26ZM53.65,193.95h4.52v-2.26H53.65v2.26ZM1165.57,458.37l1.13,1.13v1.13l1.13,1.13,2.26-1.13-2.26-2.26-2-2.48-.23,2.48ZM341.8,183.78v1.13c2.19-.4,1.88-.27,3.4-1.13l1.13-1.13.56-1.13c-5.81.44-2.54-1.21-5.09,2.26ZM705.66,199.6v1.13h3.39l1.13-2.26v-1.13h-3.39v1.13l-1.13,1.13ZM362.14,362.32l1.13,1.13h1.13c.19-.18.48-.75.56-.56l1.7-1.69c-3.14-1.51-2.19-1.13-6.78-1.13l2.25,2.26Zm880.27,143.51V507l1.13,1.13h2.25l1.13-1.13V504.7h-3.39l-1.13,1.13Zm-196.62-30.51h2.26v-1.13l-2.26-2.26h-3.39v2.26c3,.79.93-.09,3.39,1.13ZM96.59,356.67l-2.25-2.26H92.07v4.52c2.14-.5,0,.68,2.63-.76,1.44-.78,1.08-.8,1.88-1.5Zm700.61-200v1.13l1.13,1.13,4.52-1.13v-2.26h-4.52l-1.13,1.13Zm52-46.33h1.13l1.13-1.13h3.39l-1.13-2.26h-2.26l-1,1.07-1.23-2.2L848,106.94l.56,1.42c.3.92-.31-.15.56,2ZM172.3,219.94l1.13,1.13v1.13h2.26v-1.13c-.27-.2-3.75-2.26,0-2.26v-1.13l-2.26-1.13h-2.25v1.13l1.13,2.26Zm1010.22,252v1.13c1,1.2-1.67,1.33,2.26,1,2.42-.19,1-.09,2.26-1v-1.13h1.13V470.8l-1.13-1.13v-1.13h-1.13c-.91,3.41,0,2.48-3.39,3.39Zm96.05-291.54h4.52l1.13,1.13h1.13l1.13-2.26-4.52-1.13h-3.39v2.26ZM711.31,292.26l1.13,1.13c3.11.26,2.46.1,4.52,1.13h4.52l-1.13-2.26h-2.26c-5.37,0-2.14,0-3.39-1.13h-2.26l-1.13,1.13Zm361.6,155.94v1.13l2.26-1.13h3.39l2.26,1.13,1.13-1.13-1.13-1.13-1.13-1.13c-.48,0-3.18-.1-3.45-.06l-2.66.73a4.09,4.09,0,0,0-.67.46v1.13Zm-35-48.59,1.13-1.13,1.13-1.13,1.13-1.13,1.13-2.26,1.13-1.13v-2.26h-1.13c-1.61,6-5.18,4.14-6.78,10.17l2.26-1.13Zm6.78,70.06c5.37,0,2.15,0,3.4,1.13h4.52l1.13-1.13,1.13-1.13h-1.13c-5-.11-3.52-.76-7.91-1.13l-1.13,2.26Zm153.68,49.72,1.13,1.13,1.13,1.13,1.13,1.13h1.13l1.13,1.13h1.14l1.13-1.13-2.26-1.13-2.25-2.26-2.26-2.26-1.13-1.13-1.31.94,1.31,2.45ZM1052.57,378.14v2.26h1.13l2.79,1.73c.07-.17.4.35.6.53h1.13v1.13h1.13v-1.13h-1.13v-4.52H1056l-1.13-1.13h-1.13l-1.13,1.13ZM745.21,292.26h-1.13l-1.13,1.13-1.13,1.13,1.13,1.13h2.26c2.18-.4,1.88-.27,3.39-1.13l1.14-1.13,1.13-2.26H748.6C747.35,292.28,750.58,292.26,745.21,292.26ZM426.55,641.43c-4.44.1-2.65-.31-5.65,1.13l2.26,1.13h1.13l1.13,1.13h1.13l1.13-1.13c2.25-.6.52,1.51,2.39-.89,1.52-1.95.5,0-.13-1.37l-1.13-1.13h-1.13l-1.13,1.13ZM101.11,200.73,100,201.86H98.85L97.72,203H96.59v2.26h4.52l1.13-1.13h1.13v-2.26l1.13-2.26h-1.13l-2.26,1.13Zm1146.95-52v1.13h6.78l2.25-1.13,1.32-.94-2.45-.19-1.13-1.13c-1.64,0-4.89-.34-5.09.56l-1.7,1.7Zm-217,319.79v1.13l2.26,1.13.94-1.32,2.45,1.32H1039l2.26-1.13,1.13-1.13-2.26-1.13h-2.26l-2.26,1.13h-1.13l-1.13-1.13-2.26,1.13Zm109.61-335.61,1.13,1.13c1.72,0,4.13.16,5.74.08.44,0,1.76-.06,2.13-.13,2.34-.45,1-.13,2.31-1.08l-2.26-1.13H1143c-2.25,0-4.52-.82-4.52,1.13Zm-348-20.34h6.78l1.13-1.13h4.52V109.2h-2.25l-1.13,1.13h-3.39c-2.22,0-5.65.82-5.65-1.13h-1.13v1.13l1.13,2.26Zm278,318.66,1.13,2.26V438l1.42-3.1c.11-.21.25-.55.37-.75l1.59-1.8v-2.26l-2.26-2.26v-1.13h-1.13c-2,0-1.13,2.27-1.13,4.52ZM297.73,132.93l1.13,1.13h3.39l2.26,1.13h1.13l1.13-1.13,1.13-1.13-1.13-1.13c-2.07-1-1.42-.86-4.52-1.13h-4.52v2.26Zm765,336.74,1.13-1.13h5.65l-1.13,2.26h-1.13l-1.13,1.13L1064,472l-1.22,2.2-1.14,1.13h-1.13l-1.13,1.13h-1.13v-3.39l1.13-1.13,1.13-1.13h1.13l1.14-1.13Zm-15.82-133.34-1.13,1.13V342c.4,2.18.27,1.88,1.13,3.39l2.26-1.13v-1.13l1.13-1.13v-2.26l1.13-2.26v-4.52c-4,1.06-2.54.43-4.52,3.39ZM293.21,120.5a30.06,30.06,0,0,0,9,2.26l2.26,1.13h2.26l1.13-1.13c0-2-2.27-1.13-4.52-1.13l-1.69-1.7-1.7-1.69h-2.25l-2.26-1.13c-3.72,0-3-.73-4.52,1.13l2.26,2.26Zm-50.85-1.13-1.13,1.13H239v2.26l2.25,1.13h5.65c4.36-3.79,3.4-1.43,4.52-5.65h-7.91l-1.13,1.13Zm911.9,333.35,1.08,1-2.2,1.23c-1.25,1.16,2,1.13-3.39,1.13h-2.26c-.2.27-2.25,3.75-2.25,0h-1.13l-1.13,2.26,4.52,1.13H1152c4.66-1.25,2.94-1.56,7.33-6.23.1-.11.38-.37.57-.55v-1.13l-1.13-1.13h-1.13l-3.4,2.26ZM826.57,110.33h1.13v1.13h-1.13v-1.13Zm-3.39-2.26-3.39,2.26c3.72,0,3-.74,4.52,1.13v1.13c4.59,0,3.64.38,6.78-1.13h2.26l1.13,2.26h1.13l1.13-2.26h5.65l1.13-1.13h1.14V109.2h-2.26l-1.13-1.13h-1.14L839,109.2c-4.19,1.12-1.46,1.14-5.65,2.26v-1.13c-3.11-.26-2.45-.11-4.52-1.13v-1.13H830l1.13-1.13H830c-3.44.07-4.12.51-6.79,1.13ZM661.59,262.88h-1.13v4.52c.27.2,3.75,2.26,0,2.26h-1.13v7.91l1.13,1.13h1.13l1.13-1.13h1.13l1.13-2.26v-4.52l-1.13-1.13v-7.91l-2.25,1.13ZM269.48,117.11h-3.39V116h12.43l1.13,1.13h4.52l3.39,4.52H283l-1.13-1.13-2.25,1.13h-2.26l-1.13-1.13-1.13-1.13H274l-2.26,1.13h-1.13c0-5.37,0-2.14-1.13-3.39ZM983.64,116h-3.39L978,118.24h-1.13l-1.13,1.13-1.3,2.2,2.43.06,2.25-1.13h11.3c1.25-1.16-2-1.13,3.39-1.13l1.13-1.13-1.13-1.13a30.07,30.07,0,0,1-9-2.26L983.64,116ZM906.8,399.61l-1.13,2.26v3.39c1.16,1.25,1.13-2,1.13,3.39l1.22,2.2c2.9-.73.83.15,3.29-1.07l2.26-2.26c-.07-3.44-.51-4.12-1.13-6.78l-1.14-1.13-1.13-2.26-1.13-1.13H906.8v3.39ZM379.09,356.67v3.39h-4.52v1.13H378l1.13,1.13h2.26l2.19,1.23,1.19-1.23,1.13-1.13h3.4c.2-.27,2.25-3.75,2.25,0h2.26v-2.26c-.2-.18-.5-.74-.59-.54s-.49-.43-.62-.51a12.86,12.86,0,0,0-2.18-1.21l-1.13-1.13c-3.14-1.51-2.19-1.13-6.78-1.13-.2.27-2.26,3.75-2.26,0H378l-1.13,1.13,2.26,1.13Zm751.45,244.08,1.13,1.13V603l1.13,1.13v2.26l1.14,1.13,2,2.48c3.57-1.12,2.05-.69,4.75-2.48l1.13-1.13v-1.13l1.13-1.13v-5.65h-2.26l-2.26,1.13h-3.39l-1.13-1.13h-3.39v2.26ZM271.74,129.54l-2.26-2.26c1.25-1.15-2-1.13,3.39-1.13l1.13,1.13h1.13l1.13,1.13h1.13l1.13-1.13h1.13l2.25-1.13h5.65c0,3.75,2.06.27,2.26,0,3.4.91,2.48,0,3.39,3.39v1.13l-1.13,1.13-1.13,1.13H283v-2.26h-6.78L274,129.54Zm832.81,0-1.13,1.13v2.26h2.26l1.13,1.13H1117l2.26-1.13h1.13l1.13,1.13h1.13l2.26-1.13h4.52c1.19-2.77,1.19-.62,0-3.39h-9l-1.13-1.13c-4.77,1.78,1.82-1.75-1.59.68a15.19,15.19,0,0,0-1.81,1.58l-1.13-1.13h-1.13l-2.26-1.13h-4.52l-2.26,1.13Zm-58.76,236.17c2,0,1.13-2.27,1.13-4.52l1.13-1.13h2.25l1.7,1.7c.11.11.37.38.56.56v1.13l1.13,1.13v4.52l-1.13,1.13-1.13,1.13-1.13,1.13a25.9,25.9,0,0,1,1.13,5.65v1.13c-.27.2-3.75,2.26,0,2.26v2.26l-1.13,1.13h-1.13l-1.13-2.26-1.13-1.13,1.13-2.26-1.13-1.13v-2.26l-1.13-1.13-1.13-1.13v-3.39l1.13-1.13v-3.39ZM281.91,138.58v2.26L279.65,142l-1.13-1.13L277.39,142v1.13c1.51.86,1.2.73,3.39,1.13,5.37,0,2.14,0,3.39,1.13h1.13l1.14,1.13c1.51.86,1.2.73,3.39,1.13h2.26l2.25-1.13h2.26l1.13-1.13V143.1L296.6,142v-1.13h-1.13l-1.13-1.13v-2.26H284.17l-2.26,1.13Zm838.46,115.26v3.39l-1.13,1.13c-.92,2.28.39.68-2,2.56-.16.12-.57.33-.7.43s-.5.25-.73.41l-2.25,2.26v1.13l1.13,1.13v1.13h3.39v-1.13l-2.2-1.23,1.07-1,5.28.37c.25.09.56.23.79.34,1.52.72,1,.85,1.85,1.55l1.13-1.13,1.13-1.13,1.13-1.13,1.13-1.13h3.39l1.14-1.13c.4-2.18.27-1.88,1.13-3.39v0h-5.65c-2.18-.4-1.88-.27-3.39-1.13l-1.13-1.13-2.26-2.26-1.13-1.13-1.13,1.13v1.13Zm0-33.9v6.78l1.13,1.13v21.47l1.13-1.13,1.13-1.13h1.13c.8-.9,2,1.3,0-2.26-1-2.07-.87-1.42-1.13-4.52l1.13-1.13,1.13-2.26h3.39v-2.26l-1.13-1.13v-1.13l-1.13-1.13V229l-1.13-1.13v-3.39a12.48,12.48,0,0,0-.36-4.16c-.09-.35-.44-1.37-.58-1.68a6.2,6.2,0,0,0-1.32-2.07h-1.13v1.13c.62,1.42,1.65-.58.13,1.37-1.88,2.4-.13.29-2.4.89Zm6.78,28.25v0ZM344.06,342l1.13-1.13h3.39c1.25,1.16-2,1.13,3.39,1.13h2.26l2.26,2.26h3.39l2.25,1.13,2.26,2.26,1.13,1.13h2.25L370,351c2.19.4,1.88.27,3.39,1.13v2.26h-9l-1.13,1.13c-.27-.2-3.75-2.26,0-2.26.25-.58,3.08,1,.13-1.36-1.68-1.36-.24-.32-2.39-.89l-2.26-2.26-2.25-1.13a25.34,25.34,0,0,1-5.65-1.13l-2.26-1.13h-1.13v-2.26c-5.24.44-2-1.21-4.52,2.26-2.19.4-1.88.27-3.39,1.13h-1.13l.06-2.16,2.2-1.23L341.8,342ZM602.83,213.16l-1.13,1.13-1.13,2.26h-3.39v2.26l1.13,2.26v1.13l-1.13,1.13-1.13,1.13v1.13l1.13,1.13,1.13,1.13h2.26l1.13-1.13h1.13l1.13-1.13h2.26l2.26-1.13,1.13-2.26v-2.26c.89-3.34.46-1.83,2.26-4.52l-1.13-1.13v-1.13c-2.26,0-4.52.82-4.52-1.13h-1.13l-2.26,1.13ZM996.07,459.5v2.26l3.39,2.26,2.26,1.13H1004c3.51,0,5.18-.79,6.78,1.13,2.06,1,1.42.86,4.52,1.13,5.36,0,2.14,0,3.39,1.13h7.91c1.51.86,1.21.73,3.39,1.13V467.4l-3.29-.06-1.22-2.2c-1.15-1.52-1.13,2.38-1.13-3.39h-3.4l1.13,2.26,1.31.94-2.45-.94-2.25-2.26h-1.13l-1.13-1.13H1013c-1.19,1.43-2.48,1.68-5.38,1-2.66-.63-.72-1-4.79-2.12l-1.13-1.13H997.2l-1.13,1.13ZM1228.85,577l1.13,1.13c1.91,2.85,3.6,5.1,4.52,9l-1.13,1.13v2.26l-2.25,1.13v1.13l1.13,1.13,1.13,1.13h1.13l1.13,1.13c-.4,2.18-.27,1.88-1.13,3.39v1.13l2.25,1.13,1.13-1.13,1.13-1.13,1.13-1.13c.85-1.51.73-1.21,1.13-3.39l1.13-2.26,2.26-1.13,1.13-1.13c1-2.06.87-1.42,1.13-4.52h-2.26c-1.51.86-1.2.73-3.39,1.13l-1.13-1.13H1239l-1.13-1.13v-2.26h-2.26l-1.13-2.26-1.13-1.13c-.58-2.19-.21-1.75-1.13-3.39-1.52-.86-1.25-.62-3.39-1.13V577ZM955.39,109.2c5.37,0,2.14,0,3.39-1.13,5,.11,3.52.76,7.91,1.13v2.26l1.13,1.13h6.78l1.13,1.13v1.13L974.6,116v2.26h-6.78l-2.25-1.13h-7.91L956.51,116c-1.5-.86-1.2-.73-3.39-1.13,0-3.75-2.05-.27-2.25,0h-1.13l-2.26-1.13h-1.13v-1.13l2.26-1.13,1.13-1.13c3-1.44,1.21-1,5.65-1.13Zm104,282.5c.19-.27,2.25-3.75,2.25,0V394h2.26v4.52c-3.2.86-1.65-.24-3.45,2.43l-2.2-1.3c-2.73.73-1.14-.23-3.27,1.25-2.28,1.59-1.38.5-2.38,3.27l-1.13,1.13,2.2,1.3.06-2.43h5.65v3.39c.9,3.4,0,2.48,3.39,3.39l1.13,1.13,1.13-2.26c-1.19-2.58-2,.24-.63-3.08,1.31-3.13,1.55-.4,1.76-.32v1.13h1.13c.86-1.51.73-1.21,1.13-3.39l-1.13-2.26c-.16-7.16-.77-2.33-2.26-7.91h-1.13v-1.13l-1.13-2.26,2.25-1.13v-1.13l-1.13-2.26v-1.13l-1.13-1.13h-2.26V386l1.13,1.13,1.14,1.13c-1.25,1.16,2,1.13-3.39,1.13h-1.13l-2.26,1.13v-2.26l-1.13-1.13h-2.26l-1.13,1.13v3.39l1.13,1.13h1.13l1.3-1.08-1.3,2.21v2.26l2.25,1.13c3-1.44,1.21-1,5.65-1.13-1.09-3-.52-1.1-1.13-2.26s0,.75-1.13-2.26Zm-5.65,61v0Zm5.65-22.6,3.39-2.26v2.26l-2.26,3.39H1056c-.77-.93,1.2-1.36-3.39-1.26-5.58.12-2.07.26-3.39,1.26h-2.26v1.13l-1.3,2.21,2.6,3.31,2.09-2.12h2.26l2.26-1.13h2.26v3.39h-2.26c-2.46,1.22-.4.34-3.39,1.13v2.26l1.13,1.13c1,2.07.87,1.42,1.13,4.52l2.25,2.26v4.52l-2.25,1.13a6,6,0,0,1-.57-.56l-1.69-1.7v-1.13c-.74-1.06-.16.09-1.27-2.12-.2-.39-.7-1.77-1-2.4,0-5.37,0-2.15-1.13-3.39-.72,1.13-.66.1-1.08,2.31l-.05,9c-5.76,0-1.88,0-3.39-1.13v-6.78l-1.13-1.13c-1.16-1.25-1.13,2-1.13-3.39l1.13-1.13v-1.13c1.16-1.25,1.13,2,1.13-3.39V438l1.13-1.13v-4.52l1.13-1.13c2.68-1.8,1.18-1.37,4.52-2.26l1.13,1.13h5.65c0,3.75,2.05.27,2.26,0Zm165,169.5,2.26-1.13h1.13l1.13,1.13h3.39c-.1,4.51-.52,4.19-2.26,6.78l-1.13,1.13-1.13,2.26v1.13h-2.26l-1.13,1.13-2.25,1.13v2.26l-1.13,1.13c-1.05,3.95-.43,2.54-3.39,4.52l-1.13,1.13H1213l-2.25-1.13h-3.4l-1.13-2.26V617.7l1.13-1.13c1.89-2.81,3.09-4.66,6.79-5.65l1.13-1.13h1.13l2.25-2.26c3-2,2.34-.57,3.4-4.52l1.13-1.13,1.13-2.26ZM297.73,126.15H296.6V125h10.17l1.22,2.2,1-1.07h6.79l1.13,1.13h2.26l1.13,1.13,1.13,1.13,1.13,1.13h7.9c0,3.75,2.06.27,2.26,0h3.39l2.26-1.13h11.3c.24.15.61.07.73.4l4.39,2.39c.13.1.35.4.53.59-.2.18-.47.47-.56.56l-.56.57c-.09.09-.5.76-.57.57s-.35.4-.56.56H341.8c-6.13,0-14.92.93-19.21-1.13l-1.13,1.13h-4.52c0-2-2.27-1.13-4.52-1.13l-1.13-1.13V131.8l-1.13-2.26L309,128.41h-6.78l-1.13-1.13h-2.26l-1.13-1.13ZM573.45,168c-1.25,1.15,2,1.13-3.39,1.13-2.77-1.18-.63-1.18-3.39,0h-4.52c-4.19,1.12-1.46,1.15-5.65,2.26-.91-3.4,0-2.48-3.39-3.39h-2.26l-2.26,1.13-1.13,1.13v1.13c3.72,0,3-.74,4.52,1.13l2.25,3.39L553.11,177v1.13h5.65l1.13,1.13h6.78a28,28,0,0,0,6.58-1.33c3.23-1,2.6-1.69,7-2.06l1.13-1.13,2.2-1.23.06-2.16-1.13-1.13-2.26-1.13L579.1,168c-3.11-.27-2.46-.11-4.52-1.13L573.45,168ZM222,127.28v0Zm3.39-3.39,1.13-1.13h3.4c-.86,1.51-.73,1.21-1.13,3.39,1.25,1.16-2,1.13,3.39,1.13l4.52-1.13v1.13c0,2,2.26,1.13,4.52,1.13h1.13l1.13,1.13c3.33.77,3.45,1.13,7.91,1.13,3.74,0,.27-2.06,0-2.26h-1.13l1.13-2.26h1.13l1.13-1.13h1.13l1.13,1.13,2.26,2.26,1.13,1.13h2.26l1.14-1.13c3.2.86,1.65-.24,3.39,2.26-2.54,3.47.73,1.82-4.52,2.26h-7.9l-2.26,1.13H248l-2.26,1.13H235.58v-2.26H225.41l-1.13-1.13,1.13-2.26c-7.65,1.78-4.09.16-11.3,0,0-3.75-2.05-.27-2.26,0h-1.13c0-3.75-2.05-.27-2.26,0h-1.13v-2.26l6.78-1.13,1.14-1.13h1.13l1.13-1.13h7.91Zm633.93,2.26h-1.13l-1.13,1.13H850.3l-1.13,1.13h-11.3l-1.13,1.13h-3.39l-1.13,1.13a25.38,25.38,0,0,1-5.65,1.13l-1.13,1.13h-1.13c-.18.2-.45.45-.56.56l-1.13,1.13c-.08-.18-.39.37-.56.57l-2.26,1.13-1.13,1.13h-1.13v1.13l-2.26,1.13L813,142l-1.13,1.13v1.13h-2.26l-1.13,1.13v1.13l1.13,1.13h2.26l1.13,1.13c3.11.26,2.45.11,4.52,1.13l2.25,1.13h7.91v-1.13l-1.13-1.13h-1.13l-1.13-1.13-1.13-1.13L821.8,144l4.77-4.27h1.13l1.13-1.13H830l1.13-1.13h1.13l2.26-2.26h2.26l2.26-1.13c2.06-1,1.42-.87,4.52-1.13l1.14-1.13H848l1.13-1.13h5.65l1.13-1.13h6.78l1.13-1.13h3.39c1.19-2.77,1.19-.63,0-3.39H861.6l-2.25,1.13ZM680.8,119.37c.2-.27,2.26-3.75,2.26,0l-2.26,1.13v-1.13Zm12.44-6.78L691,113.72c-5.37,0-2.14,0-3.39-1.13l-2.26,1.13-1.13,1.13c-2.06-1-1.42-.86-4.52-1.13-.2.27-2.26,3.75-2.26,0H669.5c-1.19,2.77-1.19.63,0,3.39v1.13l-1.13,1.13h3.39a25.59,25.59,0,0,1,5.65,1.13l1.14,1.13v1.13L680.8,125h3.39l1.13,1.13h1.13l1.13,1.13h1.13L691,125l1.13-1.13,1.13-1.13,2.25-1.13,1.13-1.13,2.25-1.13c1.71-1.12-2.58-1.13,3.39-1.13v2.26l1.13,2.26c2.25,0,4.52-.82,4.52,1.13,3.45-.08,4.12-.51,6.79-1.13v-1.13c-3.11-.27-2.45-.11-4.52-1.13l-2.17-.06-1.22-2.2c-2.66-.62-3.34-1.05-6.78-1.13a12.13,12.13,0,0,1-2.18-1.21c-.13-.08-.53-.18-.62-.51s-.39-.36-.59-.54l2.25-1.13,1.13,1.13c4.31,1,4.49,1.13,10.17,1.13h9l1.13-1.13h1.13l1.13-1.13h1.13v-1.13h-3.39c-5.37,0-2.14,0-3.4-1.13-4.43.1-2.65-.31-5.64,1.13l-1.13-1.13h-1.13c-1.51.86-1.21.72-3.39,1.13l-2.26-1.13h-5.65c-1.56,1.86-.8,1.13-4.52,1.13Zm-79.1,87c3.72,0,3,.74,4.52-1.13h1.13c-.4,2.18-.27,1.88-1.13,3.39,4.63,2.94-3-.79,2.37,1l3.28,1.24-1.13,2.26L621,207.6l1.07,2.17,2.17.06,1.22,2.2,1.13,1.13c1,1.4-.09.17,1.56,1.83.47.47,1.09,1.32,1.21,1s.42.34.62.51l1.13,1.13v1.13l1.13,1.13v1.13c1.25,1.15-2,1.13,3.39,1.13l1.29,2.4-2.23,3.07.94,1.32-1.13,1.13h-2.26c-3.57,0-4.06-.78-5.65,1.13h-6.78l-1.13,1.13h-4.52l-2.45.94,1.32-.94h1.13l2.25-3.39h3.39v-1.13h-1.13c-1.51-.86-1.2-.72-3.39-1.13H613l1.13-1.13,1.13-1.13,1.13-2.26v-1.13c1.08-.69.34-.48,2.34-1.06a14.78,14.78,0,0,1,2.18-.07v-2.26l-1.13-1.13-1.13-2.26H613v-1.13l1.31-2.2-2.43-.06v-2.26l-2.26-1.13,1.13-2.26h-1.13l-1.13-1.13-2.26-2.26,1.19-2.43,2.2,1.3c-3.74,0-.27,2.06,0,2.26l2.26-1.13,1.13-1.13,1.13-1.13ZM1117,269.66l-2.26,1.13-1.13,2.26v1.13l1.13,1.13c-.86,1.5-.73,1.21-1.13,3.39l-1.13,1.13V281l-1.13,1.13h-1.13l-1.14,2.26c-1.51.86-1.2.72-3.39,1.13h-1.13v-1.13l-1.13,1.13-1.13,1.13-1.13,2.26-1.13,2.26h-5.65c-1.38,1,.26.57-2,.76-1.63.13-1.36,1.19-1.36-.76l-4.52,3.39-1.14,1.13h-1.13l-1.13,1.13-2.25,2.26-1.13,1.13c-1.14,1.52-1.13-2.38-1.13,3.39,4.69,1.9.58,1.22,3.39,5.65h1.13l2.2-1.22.06-3.3,1.14-1.13v-3.39c-.27-.2-3.75-2.26,0-2.26h1.13l2.26-1.13H1091v1.13h-2.26V299l-1.13,1.13v1.13l1.13,1.13H1091l2.26-2.26h2.26v-4.52h1.13c.94,1.35-.08-.72,1.27,2.12,0,.1.79,2,1,2.39l2.26-1.13,2.25-2.26v-1.13h1.13a24.54,24.54,0,0,0,4.1-.3c.3,0,1.09-.17,1.33-.23a4.07,4.07,0,0,0,1.35-.59l1.13-1.13,2.26,1.13,2.26-2.26v-4.52l1.13-1.13c0-3.57-.78-4.06,1.13-5.65l1.13-1.13V278.7l1.13-1.13v-2.26c-.4-2.18-.27-1.88-1.13-3.39-1.16-1.25-1.13,2-1.13-3.39l-2.26,1.13ZM959.91,414.3V412h2.25l1.14,1.13h4.52l2.26,2.26v1.13l1.13,1.13c2.63,3.6,1.88.92,4.52,4.52l2.26,2.26,3.39,2.26,1.13,1.13h1.13l2.26,2.26c4.63,4.88,4,7.45,4.11,7.19s.26.49.41.72a2.14,2.14,0,0,1,.36.76,1.66,1.66,0,0,0,.39.74c1.4,2,.5.78,1.51,1.89v1.13l1.13,1.13h2.26l-1.13-2.26c2.18.4,1.88.27,3.39,1.13v1.13l1.13,1.13v1.13h-1.13c-.95,1.26-.63,0-1.08,2.31-.08.43-.1,2.72-.11,3.28,0,1.85.06,3.83.06,5.71h-5.65l-1.13-1.13-4.52-4.52-1.13-1.13-1.13-1.13-2.26-3.39-1.13-1.13c-.86-1.5-.73-1.21-1.13-3.39L978,440.29V438l-2.26-2.26c-1.8-2.69-1.36-1.18-2.26-4.52l-1.13-1.13v-2.26l-2.26-2.26c-3.29-2.41-1.38-.72-3.39-4.52l-1.13-1.13L961,415.43l-1.13-1.13ZM798.32,487.75l-1.13,1.13L796.06,490l-1.13,1.13v2.26l-1.13,1.13-2.25,1.13-1.13,1.13-2.25,1.13L787,499h-2.26l-1.13,1.13v1.13l-1.13,1.13v7.91l1.13,1.13v3.39L782.5,516v1.13l-1.13,1.13v1.13l-1.13,1.13v1.13l-1.13,1.13v1.13l1.13,2.26v1.13l1.13,1.13v5.65l3.39,2.26,1.13,1.13,4.52-1.13,1.13-1.13h1.13l1.13-1.13v-1.13l1.13-1.13v-3.39l1.13-1.13v-3.39l1.14-1.13v-2.26l1.13-2.26V516l1.13-1.13v-3.39l1.13-1.13V507l1.13-2.26v-2.26l1.13-1.13v-1.13l-1.13-2.26c3.34-.88,1.37,1.08,2.26-2.26v-4.52L802.84,490v-3.39l-1.13-1.13-1.13-1.13h-1.13c-1.15,1.25-1.13-2-1.13,3.39Zm235-80.23-1.13,1.13v1.13l-1.13,1.13L1030,412l-1.13,2.26c-2.14.5,0-.68-2.63.76-1.44.79-1.08.8-1.88,1.51l-1.13,1.13-1.13,2.26-2.26,2.26h-2.26l-1.13,1.13-1.13,2.26-1.14,1.13-1.13,1.13-2.26-1.13c-3.4.91-2.48,0-3.39,3.39v5.65l2.26,2.26,1.13,2.26v4.52l2.26,2.26h2.26l1-1.07,1.22,2.2c3.11-.27,2.46-.11,4.52-1.13l1.13,1.13h2.26l1.13,1.13v1.13h2.26l2.26-1.13,1.13-1.13v-1.13l1.13-1.13c0-3.57-.78-4.06,1.13-5.65l1.13-1.13V438l1.13-1.13v-3.39l1.13-1.13c1.25-1.16-2-1.13,3.39-1.13v-1.13l-2.26-2.26c-1.15-1.25-1.13,2-1.13-3.39v-1.13l-1.13-1.13v-2.26c.61-1,1.92,1.17,0-2.26H1039l1.13-1.13v-1.13l1.13-1.13,1.13-1.13-1.13-1.13h-1.13l-1.13-1.13-1.13-1.13-1.13-1.13-2.26-2.26-1.13,1.13Zm53.11,29.38h-1.14l-1.13,1.13h-1.13c1.21,3.24.19.77,1.13,2.26.09.13.47.77.54.6s.4.35.59.53l1.31,2.21,3.22.06-2.26,3.39,1.13,1.13,1.13,2.26,1.13,1.13,1.13-1.13h.56c5.81,1.4,1.57,1.78,7.34,2.26l1.13,1.13,4.52,1.13,2.26,2.26v1.13l1.13,1.13v1.13l1.14,2.26-1.14,1.13-2.25,2.26v2.26h3.39l1.13-1.13h3.39l3.39,3.39,1.13,1.13h5.65l1.13-1.13c.4-4.86-.16-2,2.26-5.65a25.6,25.6,0,0,1,5.65,1.13l1.13,1.13c1.47,1.69-.45-.86,1.57,1.82.94,1.26,1.15,1.71,1.82,2.7l3.39,3.39h2.26l1.13,1.13h3.39l1.13,1.13h1.13l1.13-1.13v-2.26l-.62-2.43-1.64,2.43-1.13-1.13h-1.13l-1.13-2.26h-1.13l-2.26-2.26c-1.1-4.13-1.19-2.37-3.39-5.65l1.13-1.13,1.13-1.13v-2.26l-1.13-1.13h-1.13l-1.13,1.13-1.13-1.13h-1.13l-1.13-1.13c-1.05-3.95-.43-2.54-3.39-4.52l-2.26-2.26h-1.13l-1.13-1.13H1126l-2.26-1.13h-1.13l-1.13-1.13h-1.13l-1.13-1.13a25.8,25.8,0,0,0-5.65-1.13l-1.13-1.13h-1.13l-1.13-1.13h-1.14l-1.13-1.13c-3.34.89-1.83.46-4.52,2.26h-1.13v-1.13h-1.13v1.13h1.13v1.13l-1.13,1.13-2.42,3.26-2.1-2.12-1.13-1.13c-2.14-3.36,0-3.22-2.26-6.78l-2.16-.06-1.22-2.2h-2.26l-1.13,1.13Zm35,41.81,1.13-1.13c1.5,2.36,1.59,3.91,2.26,6.78l1.13,1.13v2.26l1.13,2.26,1.13,2.26h1.13l3.39,2.26V499l1.14,2.26c1,2.06.86,1.42,1.13,4.52,0,5.37,0,2.15,1.13,3.39v1.13l1.13,1.13h1.13l1.13,1.13,2.25,1.13,1.13,1.13,2.26,2.26-1.32.94,2.45,1.32v1.13l1.13,1.13v2.26h2.26l2.26,2.26.06,3.3,2.2,1.23,1.13,1.13,3.29,3.49c.12.11.53.7.62.51s.41.34.61.52l-1.13,1.13v1.13l1.13,1.13v4.52l1.13,2.26v5.65c-1.16,1.25-1.13-2-1.13,3.39v2.26c-1.15,1.25-1.13-2-1.13,3.39v1.13l-1.13,1.13c-1.11,4.13-1.19,2.37-3.4,5.65l-1.13,1.13v2.26l-1.13,1.13c-.41,2.18-.27,1.88-1.13,3.39l-1.13,1.13v3.39c-1.16,1.25-1.13-2-1.13,3.39l-1.13,1.13-1.13,1.13h-4.52l-1.13,1.13-2.26,1.13c-1.51.86-1.21.73-3.39,1.13l-2.26-1.13-1.32-2.45-.93,1.32h-1.13l-2.26,2.26h-2.25l-1.13-1.13h-1.13l-1.13-1.13h-3.39l-1.13-1.13h-1.13l-2.25-2.26v-3.39l-1.13-1.13v-1.13l-1.13-1.13c-1.63-.77,2-1.3-3.39,0v-2.26l1.08-2.43-2.2,1.3-2.26,1.13h-1.13l1.13-1.13,1.13-2.26v-2.26h-2.26l-2.25,2.26-2.26,2.26-1.13-1.13v-2.26l-1.13-1.13-2.26-3.39c-2-3-.57-2.34-4.52-3.39-6.76-.56-1.26-2.09-9-2.26-2.25,0-4.52-.82-4.52,1.13h-1.13l-1.13,1.13h-2.25l-1.13,1.13H1065l-1.13,1.13c-6.62,1.54-2.46,1.35-6.78,4.52h-6.78l-6.08,1.82c-.12-.22-.47.29-.7.44l-1.13,1.13c-2.19.4-1.88.27-3.4,1.13l-1.13,1.13h-1.13c-1.25-1.15,2-1.13-3.39-1.13-3.34-.89-1.84-.46-4.52-2.26l-1.13-1.13v-1.13l1.13-1.13c1.12-1.48.62,1.49,1.19-3.33.1-.79-.07-3.58-.07-4.58l-1.13-1.13c-.76-3.28-1.49-6.89-2.26-10.17l-1.13-1.13v-1.13l-1.13-1.13v-2.26c-1.45-3-1-1.21-1.13-5.65l1.13-1.13-1.13-1.13v-1.13l-1.13-1.13c.11-5,.76-3.52,1.13-7.91v-2.26l1.13-1.13c2.18-.4,1.88-.27,3.39-1.13l1.13-1.13c2.45-1.64,2.2-2.37,4.73-3.18,1.32-.42,5.11-1,6.57-1.34l1.13-1.13h3.39l1.13-1.13c3.62-1,2.62-.43,4.59-3.32a10.73,10.73,0,0,0,2.19-4.59v-2.26l2.26-2.26,1.13,1.13v1.13c.54.65-.16,2.48,1.31.19,1.19-1.86.73.17-.18-1.32v-2.26h2.26l1.13-1.13c.4-2.18.27-1.88,1.13-3.39l1.14-1.13,1.19-1.07c.21-.17,1.06-.81,1.28-1,.95-.7,1.5-1,2-1.34l1.13-1.13h1.13l3.39,3.39c1.08.68.33.47,2.34,1.05a14.85,14.85,0,0,0,2.18.07v-3.39l1.14-1.13c.86-1.51.73-1.21,1.13-3.39l1.13-1.13h1.13l1.13-1.13h3.4l1.13-1.13-1.32-2.45,1.32-.94,1.13,1.13h1.13l1.13,1.13h2.26l1.13,1.13h7.91l1.13,1.13a12.46,12.46,0,0,1-1.21,2.18c-.08.13-.44.79-.51.62s-.36.39-.53.59l-1.13,1.13v2.26c-.4,2.18-.27,1.88-1.13,3.39l1.13,1.13,1.13,1.13,2.25,2.26c2.19.4,1.88.27,3.4,1.13l1.13,1.13c1.51.86,1.21.73,3.39,1.13v1.13l1.13,1.13c2.46,1.22.4.34,3.39,1.13,1.4-2.64,1.94-2.94,2.26-6.78l1.13-1.13V484.36l1.13-1.13V482.1l1.13-1.13v-2.26ZM435.59,134.06c-.11-.11.32-.32.34-.34l-.34.34Zm-101.7-12.43h0Zm3.39-4.52c-.11-.11.31-.32.33-.34l-.33.34Zm-2.26,0c-.11-.11.32-.32.34-.34l-.34.34Zm1.13-2.26.34.34s-.45-.23-.34-.34Zm5.65-3.39.34.33s-.45-.22-.34-.33Zm-12.43,0c.2-.27,2.26-3.75,2.26,0h1.13l1.14,1.13h-2.26c0,3.75-2.06.26-2.26,0v-1.13Zm11.3,0c-.11-.11.31-.32.34-.34l-.34.34Zm-17-1.13.34.33s-.45-.22-.34-.33Zm10.17-2.26c-.11.11.31.32.33.34l-.33-.34Zm81.36-2.26,1.13-1.13c1.12,1.71,1.13-2.58,1.13,3.39-6,0-5.4,1.17-7.91-2.26Zm79.1-5.65h-6.78l-1.13,1.13h-1.13c-2.25,0-4.52.82-4.52-1.13h-1.14c-2.24,1.69-3.44,1.13-6.78,1.13-3.57,0-4.06-.78-5.65,1.13H466.1L465,104.68v1.13c-2.82-.24-1.33.19-3.89-.63-5.12-1.64-.68-.1-2.88-1.63h-1.13a2.82,2.82,0,0,1-.5.13l-1.14.16c-2.52,1.13-1.25-1.39-1.74,3.1-5.25-.44-2,1.21-4.52-2.26h-6.78c-2.08,2.49-.67-.37-6.31.45-2.71.39-4.09,2-6.12-.45h-3.39c-1.06,1.53-.37,1.68-2.46,2.18-4.14,1-3.13-1-3.19-1l-2.26-1.13-3.39-2.26H413c-5.72-1.33-8.74-1.13-15.82-1.13-1.74,0-4.09.16-5.73.08-3.75-.17-2.86.68-4.43-1.21h-6.79c-5.39,0-4.68.77-9,1.13L370,100.16H364.4l-2.26,1.13H348.58l-2.26,1.13c-3.11.27-2.45.11-4.52,1.13H331.63l-2.26,1.13h-7.91c-.2.27-2.25,3.75-2.25,0h-1.13l-2.26,1.13-1.32.94,3.58.19h2.25v2.26h1.13v1.13h-3.38l-2.26-1.13c-3-1.44-1.21-1-5.65-1.13h-3.39c-3.34.89-1.83.46-4.52,2.26L300,111.46c.64,2.37.14,1.36,1.51,3,.47.57,1.12,1.28,1.24,1s.44.32.64.49c3.72,0,3-.74,4.52,1.13v1.13H309l2.26,2.26h13.56l1.13-1.13,1.13-1.13,1.13,2.26H326v1.13c2,3.56.8,1.36,0,2.26-1.25,1.15,2,1.13-3.39,1.13l-1.13,2.26h6.78c5.37,0,2.14,0,3.39,1.13h5.65l1.13-1.13h11.3l1.13,1.13c4.43.1,2.65-.31,5.65,1.13v-1.13c.22-.15.53-.69.67-.46l.46-4.06c5.83,0,2.41.17,3.39-2.26h6.78l1.13-1.13H370l1.13-1.13,1.13-2.26,1.13-2.26h9l1.13-1.13h1.13l1.13-1.13h2.26l1.13-1.13h2.25l1.13-1.13h4.52c1.08-.69.34-.48,2.34-1.06a8.21,8.21,0,0,1,2.35.06l-2.43,3.26h1.13c.2-.27,2.26-3.75,2.26,0h2.26l1.13,2.26,1.13,2.26c-7.59.63-15.1,2.26-23.82,2.32l1.22,2.2h3.39v2.26l1.7,1.7c.08-.19.36.38.56.56l1.13,1.13c4.36.36,3.64,1.13,9,1.13h6.78c.21-.27,2.26-3.75,2.26,0h1.13c1.23-.93-.16-.83,2.25-1,3.94-.31,1.26-.18,2.26,1h5.65c2.25,0,4.52-.82,4.52,1.13h1.13l2.26-1.13c.95,3.55,2.71,4.11,2.75,4s.44.31.64.49h1.14l1.13,1.13,1.13,1.13c7.41,2,1.24,3.87,8.1,5.84l-1.31.94v1.13L440,145.42l1.22,2.2h3.39l1.13-1.13h3.39v2.26h1.13c.59-.26-1-3.11,1.44-.11,1.09,1.32,1.37-2.15.18,1-1.5,3.9-2.65.34-2.74.28h-2.26c-2.18.4-1.88.27-3.39,1.13-.86,1.51-.73,1.21-1.13,3.39l2.25,1.13h4.52l1.13-1.13,2.26-1.13c1.71-1.12-2.58-1.13,3.39-1.13,0,5.86,1,4.39-2.26,6.78h-2.26l-1.62,1.76c-2.23,2.44-1.08,2-4,2.76,1.44,3,1,1.21,1.13,5.65a12.4,12.4,0,0,1,2.18,1.21c.13.08.53.71.62.51s.39.36.59.54v1.13l1.13,1.13v2.26l2.26,1.13c.86,1.51.73,1.21,1.13,3.39h1.13c.1.06,3,1.46,3.08,1.57,3.57,3,.61,1.15.31,1.82l2.26,3.39,2.26,1.13H465l1.13,1.13h5.65l1.13,1.13H474l2.26,2.26h2.26c4.06-2.72,3.39-3.64,5.65-7.91v-2.26l5.64-4.52v-4.52l2.26-1.13v-1.13c5.07-3.22-.36-.24,3.3-1.22,2.68-.72.84.23,3.49-1h6.78l2.26-1.13h2.25l1.13-1.13h1.13v-2.26h2.26v-1.13l1.13-1.13H517l1.13-1.13,2.26-1.13h9c1.25-1.16-2-1.13,3.39-1.13h4.52l2.25-1.13h1.13l1.13-1.13h1.13l2.25-1.13h1.13l1.13-2.26c-2.38-1.15-1-.83-4.52-1.13v-2.26c1.77-2.12,1.62-2.12,3.39,0l1.13,1.13h6.78l1.13-1.13c-1-1.11-.1.14-1.51-1.89a1.69,1.69,0,0,1-.39-.74,2.14,2.14,0,0,0-.36-.76V143.1c.58-6.92,1.44-3.08,6.78-5.65v-1.13c-1.14-2.38-.83-1-1.13-4.52h3.39c-.92-1.64-.55-1.19-1.13-3.39h-3.39l-2.26,1.13V125H561l.43-.22,3-.91h0c-.23-.15-.58-.66-.7-.44s-.56-.32-.74-.39a17,17,0,0,0-1.68-.57c-1.51-.45-1.74-.41-3.66-.86H556.5v-2.26l2.26-2.26H561l1.13-1.13,1.13-1.13.56-.57c.11-.11.38-.37.56-.56s2.26-3.75,2.26,0h1.13l1.13-2.26h2.25l2.26-1.13,2.26-1.13H578l1.13-1.13h3.39v-2.26h-1.13c-.94,1.13-14.28,2.47-17,2.38-3.71-.12-3,.52-4.48-1.25l-1.13-1.13h-1.13v1.13l1.13,1.13h-3.39c-5.37,0-2.14,0-3.39-1.13l-2.45-1.32,1.31-.94v-1.13h-1.13l-1.13,1.13c-1.56,1.87-.79,1.13-4.52,1.13h-1.13l1.22-2.32-1.22-2.2h-2.26c-5.37,0-2.14,0-3.39-1.13h-1.13c-2.25,0-4.61.09-6.84.06-3.57,0-4,.67-5.59-1.19H522.6c-.2.27-2.26,3.75-2.26,0h-1.13c-1.5,1,2.45,1.26-3.28,1.14-4.37-.09-1.1.37-2.37-1.14H511.3c-1.25.95,0,.62-2.32,1.09l-3.35.18c-3.7-.12-3,.46-4.5-1.28H500c-1.59,1.91-2.08,1.13-5.65,1.13ZM388.13,645.95v1.13L387,649.34h1.13v1.13l-2.26-1.13a12.73,12.73,0,0,1,1.22-2.18c.08-.13.44-.25.51-.62s.36-.4.53-.59Zm48.59-79.1-1.13-2.26,3.58.19-1.32.94-1.13,1.13ZM398.3,509.22l2.25-1.13-.05,3.56-2.2-1.3v-1.13Zm-9-12.43h1.13l1.08,2.43-2.2-1.3v-1.13ZM454.8,436.9c3.75,0,.27,2.06,0,2.26L453.67,438l-1.13-1.13c.2-.27,2.26-3.75,2.26,0Zm-71.19-44.07,1.13,2.26v2.26h-1.13l-1.13-1.13c0-5.36,0-2.14,1.13-3.39ZM335,387.18l1.13,1.13,1.08,1.3-2.2-1.3-1.13,1.13V394l1.13,1.13h1.13l2.26,1.13,2.26,2.26,1.13,1.13,1.13,1.13c5.36,0,2.14,0,3.39,1.13h2.26v2.26l2.26,1.13h2.25v-3.39l1.13-1.13,1.13-1.13,1.13-1.13,3.25,2.42.14,3.23,2.25,2.26v1.13l1.13,1.13v12.43l-1.13,1.13L361,423.34l-1.13,1.13-1.13,2.26-1.13,1.13-1.13,2.26-1.13,1.13h-1.13c0,5.36,0,2.14-1.13,3.39v2.26l-2.25,2.26v4.52l1.13,1.13h2.26c0,6,0,1.68-1.13,3.39l-3.39,3.39V455l1.13,1.13v3.39c2.88,1.93,3.52,1.94,4.52,5.65l1.13,1.13,1.13,2.26,1.13,1.13v2.26l1.13,1.13,1.13,4.52,1.13,1.13a16.89,16.89,0,0,0,2.26,5.65l1.13,1.13v1.13l1.13,1.13c.1,4.44-.31,2.65,1.13,5.65l4.52,4.52h1.13l2.26,2.26h1.13l1.13,1.13h1.13l1.13,1.13,2.26,1.13,1.13,1.13,3.14,3.63.24,3.14,1.13,2.26v9c0,5.37,0,2.14-1.13,3.39v10.17l-1.13,1.13v5.65l-1.13,2.26v3.39l-1.13,1.13v5.65l-1.13,1.13v4.52c1.16,1.25,1.13-2,1.13,3.39v2.26L382.48,568v3.39l-1.13,1.13c-.27,3.1-.11,2.45-1.14,4.52l-1.13,1.13v2.26L378,581.54v1.13l-2.26,2.26v2.26c1.16,1.25,1.13-2,1.13,3.39V594l-1.13,1.13v6.78L374.57,603v3.39l-1.13,1.13,1.13,1.13,2.25-3.39v-1.13l1.32-2.45.94,1.32v2.26c-.27,3.1-.1,2.45-1.13,4.52v1.13c-.78,3.32-1.13,3.45-1.13,7.91L375.7,620c-1.51-.86-1.21-.73-3.39-1.13L371.18,620,370,622.22c2.25,0,4.52-.82,4.52,1.13l-1.13,2.26-1.13,1.13-1.13,1.13V629h1.13c1.48-.91-.55-1.37,1.31-.18,2.3,1.47.47.77-.19,1.31h-2.26v6.78h2.26l1.13,1.13h-1.13c-1.16,1.25-1.13-2-1.13,3.39h2.26l2.25,2.26a2.17,2.17,0,0,0-.36.76,1.67,1.67,0,0,1-.39.74c-1.4,2-.5.78-1.5,1.89v1.13h1.13l1.13,2.26L378,651.6h2.25c1.51.86,1.21.73,3.4,1.13l1.13,1.13c2,2.67,3.57,3,7.91,3.39h5.65l1.13-1.13h3.39l2.26-1.13-6.78-3.39-1.13-1.13-2.2-1.23-.06-2.17-1.13-1.13v-2.26l-2.26-1.13V638l2.26-1.13,1.13-1.13H396l1.13-1.13v-2.26l2.26-2.26,2.26-1.13,2.26-2.26v-2.26l-1.13-1.13h-3.39l-1.13-2.26c-.27-.2-3.75-2.26,0-2.26l1.22-2.2,2.17-.06,1.13-1.13H404l1.13-1.13v-1.13c0-5.37,0-2.14,1.13-3.39l1.13-1.13c1-2.48-.05-.64,1.33-2.07.88-.91.93.62,1.34-.91.1-.35.5-.25.73-.41l-2.26-1.13h-1.13c-1.94,0-1.13-2.26-1.13-4.52v-1.13c1.51.86,1.21.73,3.39,1.13h5.65c.08-3.44.51-4.12,1.13-6.78-.91-1.48-1.37.55-.19-1.31,1.47-2.3.77-.46,1.31.19h3.39l2.26-1.13h3.39l1.13-1.13h2.25l1.13-1.13c.18-.2.47-.76.53-.59s.43-.49.51-.62a12.71,12.71,0,0,0,1.22-2.18l1.13-1.13v-2.26l-2.26-3.39v-2.26l-1.13-1.13-.94-2.45.94,1.32c4.46.37,5.29,1.13,11.3,1.13l1.13-1.13,1.13-1.13,1.13-1.13L448,568l1.13-1.13v-1.13l1.13-1.13v-1.13l1.13-1.13c.41-2.18.27-1.88,1.14-3.39l1.13-2.26h3.39v-1.13l1.13-1.13v-1.13l1.13-1.13,3.59-4.35-.2-3.56V538.6l1.13-1.13,5.65-5.65,1.13-1.13h1.13l1.13-1.13H474l1.13-1.13c2.06-1,1.41-.86,4.52-1.13,1.56-1.86.8-1.13,4.52-1.13l3.39-2.26,1.13-1.13v-2.26l1.13-1.13c1.42-2.68,2.63-4.61,3.4-7.91,0-1.51-.52-4,.56-5.08l.56-.57c.09-.09.49-.22.57-.56s.4-.35.56-.56V490l1.13-2.26c.19-.18.48-.75.56-.57l1.7-1.69,1.13-1.13v-1.13l1.13-1.13c1.14-4.27,2.18-3.29,4.52-6.78l2.26-2.26c.86-1.51.73-1.21,1.13-3.39l1.13-1.13v-9L509,457.23l-1.22-2.2-4.43-.06-2.26-2.26-6.78-5.65-1.13-1.13h-9L483,444.81H477.4v-2.26l-2.25-2.26H474l-1.13-1.13h-1.13L470.62,438h-1.13l-1.13-1.13c-5.36,0-2.14,0-3.39,1.13l-3.39,4.52h-1.13v-1.13l1.13-1.13,1.13-1.13V438l1.13-1.13-1.13-1.13-3.29-.06-1.22-2.2h-1.13v2.26l-2.2-1.23,1.07-1,1.13-1.13,1.23-2.2c-.89-3,0-1-1.23-3.45l-1.13-1.13v-2.26l-1.13-1.13v-3.39l-1.13-1.13c-3.49-2.34-2.51-3.38-6.78-4.52L445.76,412h-1.13l-1.13-1.13c-1.72,0-4.12.16-5.73.08-.44,0-1.76-.06-2.13-.13-2.34-.45-1.05-.13-2.31-1.08l-2.26-2.26h-1.13l-1.13-1.13c-1.22-4.59-3.09-4.83-6.78-6.78H420.9c-.89-3.34-.46-1.83-2.26-4.52h-3.39c-1.34-3.23.24.65-.56-2l-.56-1.42c-4.44.1-2.65-.31-5.65,1.13h-1.13L406.21,394h-1.13L404,392.83c-3.14-1.51-2.19-1.13-6.78-1.13H396l-2.26-2.26-1.13-1.13-2.26-1.13L388.13,386,387,388.31l-1.13,1.13h-2.25l1.27-4.47-2.4,0L381.35,386c-1.33,1.16.87.24-1.88,1.5-2.43,1.11-.59.28-2.64.76l-2.25,1.13h-1.13l-2.26,1.13L369,391.79c-.21,6.36-.63,3.6-3.45,7.82l-2.07,1-3.58-4.35h-3.39l-2.26,1.13a25.77,25.77,0,0,1-5.65,1.13l-5.65-5.65-1.13-1.13v-7.91c0-2.22-.82-5.65,1.13-5.65v-4.52l-1.13-1.13-2.25-1.13-1.13-1.13h-6.78c-1.24.94,0,.71-2.37,1.14a18.22,18.22,0,0,1-2.13.13c-4.63-.2-2.43-.11-3.41-1.28l1.13-2.26,1.13-1.13v-4.52a12.6,12.6,0,0,1,1.21-2.18c.08-.13.44-.26.51-.62s.36-.39.54-.59c0-9.06,2.08-3.4,2.25-11.3h-6.78c-1.25,1.16,2,1.13-3.39,1.13H319.2l-1.13,1.13v3.39l-1.13,1.13c-.93,3.47-.1,1.86-3.39,5.65l-1.13-1.13h-2.26L309,360.06c-3.1.26-2.45.11-4.52,1.13l-2.26-2.26c-4.57-1.22-2.23-.28-4.19-3.72-1.43-2.52-1.83-2.48-2.59-5.32v-1.13l-1.13-2.26c-1.12-1.48-.62,1.5-1.19-3.33-.1-.79.06-3.58.06-4.58.17-7.78,1.7-2.28,2.26-9l-1.13-1.13V325l1.13-1.13v-1.13l2.26-2.26,1.13-1.13h2.26l1.13-1.13v-1.13l1.13-1.13h1.13l1.13-1.13H309l1.14,1.13h1.13l1.13-1.13,2.25,1.13,1.13,1.13h5.64v-2.26l-1.13-1.13V312.6h12.43l1.14,1.13c2.06,1,1.42.86,4.52,1.13l1.13-1.13h1.13l1.13,1.13,2.26,3.39v3.39l1.13,1.13V325l2.25,2.26v2.26l2.26,2.25v1.13h3.39V331.8l1.13-1.13v-4.52L353.1,325a40.75,40.75,0,0,0-2.25-7.91L349.71,316V312.6c-.27-.2-3.75-2.26,0-2.26v-2.26l1.13-1.13v-1.13l1.13-1.13c.22-.16.58-.65.69-.44s.56-.33.72-.42c.59-.33,2-.24,4.24-3.67l1.13-1.13h1.13l1.13-1.13c2.69-1.8,1.18-1.37,4.52-2.26l1.13-1.13,2.26-3.39c-2-3.56-.8-1.36,0-2.26l-1.13-2.26-1.13-1.13v-7.91h1.13v2.26A13,13,0,0,0,369,282c.09.13.45.79.51.62s.36.39.54.59c1.44-3,1-1.21,1.13-5.65,1.11-1-.13-.1,1.89-1.5.13-.09.64,0,.74-.39s.51-.24.76-.36v-1.13L375.7,273v-1.13l-1.13-1.13H378l1.13-2.26h4.52l1.13-1.13h3.39v-1.13L387,265.14l-1.13-2.26,2.26-3.39,1.13-1.13h2.25l1.13-2.26h4.52L398.3,255l1.13-1.13,2.26-1.13h3.39l1.13-1.13c.63,1.42,1.65-.58.13,1.37-1.87,2.4-.13.29-2.39.89l-1.13,2.26c.41,2.18.27,1.89,1.13,3.39,4.13-1.11,2.37-1.19,5.64-3.39l1.13-1.13h3.39l1.13-1.13h1.13l1.13-1.13c2.18-.4,1.88-.27,3.39-1.13l1.13-1.13h1.13L422,248.19v-2.26H420.9l-1.13,1.13c-.92,1.64-.55,1.19-1.13,3.39h-3.39v-2.25L413,247.06h-2.25l-1.13-1.13c-3.56,2-1.36.8-2.26,0l-1.13-1.13c2-3.56.8-1.36,0-2.26h-1.13v-1.13l2.25-1.13,1.13-1.13V238l-1.13-1.13h-7.9L397.17,238H396l-1.13,1.13L393.78,238l1.13-1.13,2.26-1.13,2.26-1.13,1.13-1.13h1.13l1.13-1.13h5.65l1.13,2.26,1.13,1.13c3.14,1.51,2.19,1.13,6.78,1.13-1.33-1.16.87-.24-1.88-1.51-2.42-1.11-.59-.28-2.64-.76l-1.13-1.13h-1.13v-1.13c4.75,0,4.56-.47,7.9,1.13l1.13-1.13h4.52l1.13-1.13,3.39-2.26,1.13-1.13h4.52l-1.13,2.26-1.14,1.13v1.13l-1.13,1.13v1.13l-1.13,1.13c-1.79,2.69-1.36,1.17-2.25,4.52l-1.13,1.13-1.13,1.13,1.13,1.13h2.26c1.76-2.11,1.62-2.11,3.39,0h5.65v2.26h2.26l2.26-2.26h1.13v1.13l1.13,1.13,1.13,1.13H448V244.8c-1-2.47.06-.63-1.32-2.07-.87-.91-.93.62-1.34-.92-.1-.35-.5-.25-.73-.4V238l1.13-1.13c-1.6-1.92-3.28-1.13-6.79-1.13l-1.13-2.26-2.26-1.13,1.13-1.13c.85-1.51.73-1.21,1.13-3.39v-9h-2.26l-2.25-1.13h-4.52v-1.13h2.26c3.75,0,.27-2.06,0-2.26-5.37,0-2.14,0-3.39-1.13h-1.13L425.42,212h-2.26L422,210.9l-2.26-1.13-1.13-1.13-1.13-2.26-1.13-4.52-2.26-2.26L413,198.47l-3.39-3.39-1.13-1.13v-1.13l-1.13-1.13L404,195.08v1.13l-1.23,2.2-2.16.06-1.13,1.13c-3.72,0-3,.74-4.52-1.13l-1.13-1.13h-2.26l-1.13-2.26v-5.65H387l-2.26-1.13h-1.13l-3.4-3.39h-1.13L378,183.78c-5.39-.45-2.21-1.42-5.65,0h-5.65l-1.13-1.13h-3.4c-1.06,2.29-.38.57-.59,3-.15,1.63.18,1.39-.53,2.61v1.13l1.13,2.26v1.13l1.08,2.16-2.2,1.23-2.26,1.13,1.13,2.26H361l2.26,2.26V203l1.13,1.13v1.13l1.13,2.26-2.26,3.39L362.14,212H361l-1.13,1.13h-1.13l-1.13,1.13h-1.13c.4,2.18.27,1.88,1.13,3.39v3.39l1.13,2.26c-.4,2.18-.27,1.88-1.13,3.39h-1.13l-1.13,1.13-2.17,1.07-1.22-2.2-1.13-1.13-2.26-2.26,1.13-1.13,1.13-1.13h-1.13l-2.16-.06-1.23-2.2v-5.65L344.06,212h-7.91L335,210.9h-1.13l-2.26-1.13c-6.3-.52-3-2.79-10.17-3.39l-1.13-1.13h-2.25l-1.13-1.13h-2.26l-1.13,1.13h-2.26V203l-1.13-1.13v-1.13L309,199.6l-1.13-1.13c-2.25,0-4.52.82-4.52-1.13v-4.52l.07-2.17,2.2-1.23V188.3l1.13-1.13,3.39-2.26,2.26-2.26h2.25l2.26-1.13,1.13-1.13v-1.13h1.13l1.13-1.13,2.26-1.13H326l2.26-2.26,2.25-2.26v-1.13l2.26-1.13v3.39l-1.13,1.13V177H330.5l-1.13,1.13,2.26,1.13,1.13-1.13c2.69,1.8,1.18,1.36,4.52,2.26h1.13l1.13-1.13h1.13l2.26-2.26h1.13a12.58,12.58,0,0,1,2.18,1.21c.13.09.53.72.62.51s.39.36.59.54H352V177c-3.74-.31-2.07.5-5.61-2.3l-1.16-1.09h-1.13l-1.13-1.13a25.69,25.69,0,0,1-5.65-1.13L335,169l-2.2,1.22c0-5.36,0-2.14,1.14-3.39H335l2.26,2.26h1.13l1.13,1.13h2.25v-1.13l-.93-2.45.93,1.32h2.26l1.13-1.13h1.13l1.13-1.13h1.13l1.13-1.13-1.13-2.26-1.13-1.13V160l-1.13-1.13h2.26l1.13-1.13a50.42,50.42,0,0,1-5.65-3.39h-1.13v-1.13h1.13l2.26,1.13h1.13c1.25-1.16-2-1.13,3.4-1.13H352c2.06,1,1.42.86,4.52,1.13h1.13l1.13-2.26h1.13l2.16.06,1.23,2.2h1.13l1.13,1.13c.8.89,2-1.31,0,2.26,2.76,1.19.62,1.19,3.39,0,5.36,0,2.14,0,3.39,1.13h1.13V160l-1.13,1.13L371.18,160h-4.52c-3.4.91-2.48,0-3.39,3.39l1.13,1.13H370l2.26-3.39c1.25,1.16-2,1.13,3.39,1.13L374.57,160c5.24.44,2-1.21,4.52,2.26v1.13c.73,1.2,2-.94-.19,2-.75,1-1.08.88-2.08,1.44H375.7L374.57,168l-1.13,1.13,1.13,1.13c-1.25,1.16,2,1.13-3.4,1.13-.2.27-2.25,3.75-2.25,0h-5.65l-1.13,1.13L361,173.61v1.13l2.26,1.13h3.39c3.64-.77,2.31-.26,4.5-.47a48.07,48.07,0,0,1,5.67-.66L378,177l1.13,1.13h2.26l1.13,1.13c2,2.77,1.54,2.43,5.65,3.39h1.13l4.52,1.13,1.13,1.13c4.6,0,3.64-.37,6.79,1.13v-4.52H404l1.13,1.13h1.13l1.13-1.13v-1.13l1.13-1.13-3.39-4.52L404,173.61h-1.13l-3.29-.06-1.22-2.2v-2.26l1.13-1.13,1.13,1.13h2.26c1,.67,1.45.88,2.7,1.82,2.69,2,.13.1,1.82,1.57h1.13l1.13,1.13c2.29-.82,1.22-.24,2.93-1.59,2.22-1.75,1.24-.9,2.72-2.93,1.11-1-.13-.1,1.89-1.5.13-.09.64,0,.74-.39s.5-.24.76-.36c-1.25-1.15,2-1.13-3.39-1.13l-5.65-2.26-2.26-1.13-1.13-1.13h-3.39L401.69,160h-2.26l-1.13-1.13h-1.13c-.27-.2-3.75-2.26,0-2.26h3.39c-.19-.18-.53-.7-.59-.53l-1.66-2.86-1.13-1.13c-5.37,0-2.14,0-3.39-1.13l-2.26-1.13H387l-1.13-1.13-2.25-1.13-1.13-1.13H378l-1.19.17-2.2-1.3h-1.13l-1.13-1.13c-2.06-1-1.42-.87-4.52-1.13-1-1.1-.1.14-1.5-1.89a1.62,1.62,0,0,1-.39-.74,2.3,2.3,0,0,0-.36-.76H364.4l-1.13-1.13H353.1L352,139.71,353.1,142h4.52v2.26h-3.39l-2.13,0-1.26-4.48-2.26-1.13H341.8c-1.25,1.15,2,1.13-3.39,1.13h-1.13l-1.13-2.26h-6.78l-2.26,1.13h-2.25l-1.13,1.13-3.39,3.39-1.13,2.26,1.13,2.26,2.26,2.26,1.13,1.13,1.13,1.13h6.78l1.13,1.13H335v2.26l2.45,1.32-1.32.94H335l-1.13,1.13V160l-1.14,1.13L330.5,160v1.13l-1.13,2.26h-1.13l-2.2-1.22c.73-2.9-.15-.83,1.07-3.29l-2.25-2.26h-3.4l-1.13,1.13-1.13,1.13-1.13-1.13-3.4-3.39h-2.25l1.22-2.2-3.48-3.45L309,147.62l-2.25-1.13-2.26-1.13c-5.78.48-1.53.86-6.78,2.26V151l-1.13,1.13c1.33,1.16-.87.24,1.88,1.51,2.42,1.11.59.28,2.64.76l1.13,1.13h1.13l1.13,1.13,1.13,2.26c-1.25,1.15,2,1.13-3.39,1.13L300,161.18h-1.13c.4-2.18.27-1.88,1.13-3.39v-1.13l-2.25-1.13-1.13-1.13h-2.26l-1.13-1.13-2.26,1.13-1.13,1.13-2.26,1.13v1.13h3.39V160l-2.26,2.26h-1.13l-1.13-1.13h-2.26L283,162.31h-6.78l-1.13-1.13H274c-2.26,0-4.52.82-4.52-1.13h-1.13l-1.13-1.13-1.13-1.13v-1.13l1.13,1.13h11.3v-2.26c1.51-1.15-2.38-1.13,3.39-1.13v-2.26h-2.25L277.39,151h-1.13c-5.37,0-2.14,0-3.39-1.13h-1.13l-1.13-1.13-1.13-1.13-2.26-3.39c0-5.37,0-2.14,1.13-3.39l1.13-1.13-1.13-1.13H262.7c-3,1.44-1.22,1-5.65,1.13-.5,5.88,1.08,2-2.26,3.39L253.66,142h-1.13l-1.13-1.13c-3.34.89-1.37-1.08-2.26,2.26-3.5-.3-2.14,0-4.52-1.13l-2.25-1.13H239L237.84,142l-1.13-1.13-1.13-1.13h-3.4l-2.25-2.26h-2.26l-1.13-1.13H216.37l-1.13-1.13h-6.79c-1,0-3.79-.16-4.58-.06-4.82.57-1.85.07-3.33,1.19l1.13,1.13-4.52,5.65L196,144.23l2.26,1.13,2.25,1.13c5.25,1.4,1,1.78,6.79,2.26l1.13-1.13h5.65c1.41-5.26.81-2.2,5.65-4.52v3.39c3.28.87,2.11-.07,3.21,2.93,0,.06.1.32.18.47l2.26,1.13H239v1.13h-11.3l-2.26,1.13,1.13,1.13,1.13,1.13,1.13,1.13,2.26-1.13h3.39l1.13,1.13h1.13l1.13,1.13,1.14,1.13L240.1,160h5.65c1.25-1.16-2-1.13,3.39-1.13,3.57,0,4.06-.78,5.65,1.13l1.13,1.13,2.26,2.26,1.13,1.13-2.2,1.3c-.85-3.47.09-1.8-2.31-3.56l-1.13-1.13h-11.3c-1.59,1.91-2.08,1.13-5.65,1.13h-3.39L232.19,160h3.4l1.13-1.13-2.26-1.13h-6.78c-5.37,0-2.14,0-3.39-1.13h-3.4l-1.13-1.13c-4.46,0-4.58-.36-7.91-1.13-2.25,0-4.52.82-4.52-1.13H206.2l-2.25,2.26-2.26-1.13-2.26-1.13c-2.68,1.8-1.17,1.37-4.52,2.26l-1.13-1.13-3.63-3.15-2,.89L187,153.27H183.6l-1.13-1.13h-3.4L178,153.27h-2.26l-1.13,1.13h-3.39L170,155.53c-4.78-1.12-3.73-1.09-7.91,1.13H161c-1.25,1.15,2,1.13-3.39,1.13l-2.26-1.13h-2.25L152,155.53h-1.13l-1.13-1.13h-7.9l-1.13-1.13h-3.39l-1.13-1.13H135c-1.25,1.15,2,1.13-3.39,1.13h-3.39l-1.13-1.13h-7.91L116.93,151H105.63l-1.13-1.13H97.72l-1.13-1.13H93.2l-1.13-1.13H88.68l-1.13,1.13H86.42l-1.13,1.13H78.51L77.38,151H75.12L74,152.14H70.6l-1.13,1.13c-3.28,2.2-1.51,2.29-5.65,3.39-1.56,1.87-.79,1.13-4.52,1.13-5.37,0-2.14,0-3.39,1.13L57,161.18a25.69,25.69,0,0,1,5.65,1.13l1.13,1.13c2.69,1.8,1.18,1.37,4.52,2.26l1.13,1.13H70.6l1.13,2.26L66.18,169,65,166.83H60.43L59.3,168H58.17c-1.25,1.15,2,1.13-3.39,1.13H53.65l-1.13,1.13H51.39v1.13h1.13l2.25,1.13v1.13l1.13,1.13H57c5.37,0,2.14,0,3.39,1.13h2.26c1.24-.93-.16-.83,2.26-1,3.93-.31,1.25-.17,2.26,1h2.25l1.13-1.13h2.26L74,175.87l1.13,2.26L74,179.26H69.47l-1.13,1.13H67.21L65,181.52H62.69l-3.39,2.26-1.13,1.13c-1.18,2.77-1.18.63,0,3.39l1.13,1.13,1.13,1.13,2.26,2.26A12.84,12.84,0,0,1,64.87,194c.13.08.53.72.62.51s.38.36.59.54h1.13l2.25-2.26,1.13,1.13c1.15,1.25,1.13-2,1.13,3.39,0,2.5,3.83.42,5.65,0l1.13,1.13h1.13l1.13,1.13c3-1.44,1.21-1,5.65-1.13v2.26l-1.13,1.13-3.4,3.39-1.13,1.13H78.51l-1.13,1.13-1.13,1.13c-.2.26-2.25,3.74-2.25,0H72.86l-1.14,1.13H70.6l-1.13,1.13L67.21,212l-1.13,1.13c-1.74,0-2.67-.34-4.17.47-3.85,2.07-.35,1.78-.34,1.79H65l1.13-1.13h1.13l1.13-1.13H70.6l1.31-2.45.95,1.32H74l2.25-1.13h1.13l2.26-1.13H81.9l2.26-2.26h1.13l1.13-1.13h1.13l1.13-1.13c4.06-2.72,4.75-2.46,9-4.52L100,199.6v-2.26l-1.13-1.13c2.47-3.37,1.05-1,4.2-3.71,2.86-2.41.67-2,5-3l-1.3,2.21v1.13l-1.13,2.26v1.13h4.52l1.13-1.13h1.13l1.13-1.13h3.39l1.13-1.13v-2.26c1.15-.73,0-.72,2.31-1.08a28.42,28.42,0,0,1,3.34-.06v2.26h1.13l1.13-1.13,1.13,1.13h2.25l1.13,1.13h7.91l1.13,1.13h7.91l1.13,2.26h2.26c3.95,1.05,2.54.43,4.52,3.39h1.13l1.13,1.13h1.13l1.13,1.13,2.25,2.26,1.14,1.13v1.13l2.26,1.13h1.13l2.26,1.13L170,210.9c1,1.11.1-.14,1.51,1.89.09.13.33.92.39.74s.24.51.36.76l2.26-1.13c.2-.27,2.26-3.75,2.26,0,1.64.92,1.19.55,3.39,1.13v4.52l2.26,1.13h1.13c1,1.11.1-.14,1.51,1.89.09.13.32.92.39.74s.24.51.37.76H187c2.4,1.77,1.47.09,2.82,3.39l-.56,1.13v2.26h-1.13l2.26,3.39h1.14l1.13,1.13,2.26,1.13,1.13,1.13,2.26,1.13,1.13,1.13,1.13,1.13v2.26l1.13,1.13v2.26l1.13,1.13v4.52c0,2.22.82,5.65-1.13,5.65v3.39l-1.13,1.13v1.13l1.13,2.26V273l1.13,1.13v2.26l1.13,1.13v1.13L206.2,281l1.13,1.13,1.13,2.26c1.6,3.33,1.28,3.62,3.39,6.78l2.26,2.26,1.14,2.26,1.13,1.13h2.26l1.13,1.13c2.18.4,1.88.27,3.39,1.13l2.26,2.26v1.13l1.13,1.13c1.15,4.93,3.37,6.38,4.52,11.3l1.13,1.13c3.1,2.07,4.13,2.11,4.52,6.78l-2.26,1.13,2.26,2.26c1.51.86,1.21.73,3.39,1.13l3.39,3.39v4.52l4.52,3.39,2.25,2.26v2.26l2.26-1.13v-3.39l-1.13-1.13h-2.26V335.2L248,334.07l-1.13-4.52-1.13-1.13v-1.13L243.49,325c-.85-1.51-.73-1.21-1.13-3.39l-1.13-1.13v-1.13L239,318.25V316h-1.14l-2.25-2.26v-3.39l-.57-2.26h.57c2.18.4,1.88.27,3.39,1.13l1.13,1.13,1.13,4.52,1.13,1.13v2.26l2.25,1.13,2.26,2.26,2.26,2.26V325l1.13,1.13,3.4,3.39v2.25l2.25,1.13,2.26,2.26,3.39,4.52,2.26,2.26c1.8,2.69,1.36,1.18,2.26,4.52l1.13,1.13c-.07,3.44-.51,4.12-1.13,6.78l3.39,3.39h1.13l2.26,2.26c.82.72.26.87,1.85,1.54,2.61,1.1.7.46,3.8.72l2.26,2.26,2.25,1.13,1.13,1.13h2.26l1.13,1.13h1.13l1.13,1.13h1.13l1.13,1.13h1.13l2.26,1.13h1.13l1.13,1.13h1.13l2.26-2.26h1.13c.2-.27,2.26-3.75,2.26,0,3.7,1,2.76.94,5.38,3.66a23,23,0,0,0,4.79,4.25l1.13,1.13h3.39l1.13,1.13c3.32.78,3.45,1.13,7.91,1.13.89,3.34.46,1.83,2.25,4.52l3.4,2.26c1.07-4,.33-1.62,1.13-1.13ZM243.49,268.53v1.13h-1.13l-1.13-1.13.06-1.3,2.2,1.3Zm110.74-3.39H352c-.81.7-.45.72-1.88,1.5-2.64,1.44-.5.26-2.64.76h-1.13l-2.43-.06,1.3-2.2h2.25l1.13-1.13h1.13c1.25-1.16-2-1.13,3.39-1.13h2.26l1.36.23-2.48,2Zm10.17-4.52h-7.9v-1.13l1.13-1.13h2.26c1.56-1.86.79-1.13,4.52-1.13h2.26l1.3.06-1.3,2.21h-1.13l-1.13,1.13Zm-22.6-11.3h6.78l1.13,1.13H352l1.13,2.26c.27.2,3.75,2.26,0,2.26H352c-2.77-1.19-.62-1.19-3.39,0v1.13l-1.13,1.13v2.26l-1.13,1.13c-1-1.1-.1.14-1.51-1.89a1.59,1.59,0,0,1-.38-.74,2.34,2.34,0,0,0-.37-.76h-1.13l-1.13,1.13v-1.13l1.13-2.26v-2.26l-1.13-1.13h-1.13c-1.12-1.71-1.13,2.58-1.08-3.56l2.2,1.3ZM335,252.71l-2.26,1.13-1.13,2.26v4.52c.27.2,3.75,2.26,0,2.26V264l-1.13,1.13c0,3.75-2.05.26-2.25,0-1-1.49-1.27,2.45-1.14-3.28.09-4.37-.38-1.1,1.14-2.37v-2.26l1.13-4.52,1.13-1.13,2.26-1.13H335l2.26-1.13c-.77,3.23.17,1.7-2.26,3.39Zm76.84-4.52v1.13l-1.3,1.07,1.3-2.2Zm-88.14-3.39c-1.51.86-1.2.73-3.39,1.13l-1.13,1.13h-1.13l-1.13-1.13-1.13-1.13,1.13-1.13h1.13l1.13-1.13h1.13l1.13-1.13c1.51-.86,1.21-.73,3.4-1.13l1.13-1.13,1.13-1.13,1.13,1.13h3.39l1.13,1.13,1.14,1.13h3.39v3.39l1.13,1.13-1.13,1.13h-9l-2.45-1.32,1.31-.94v-1.13h-2.25l-1.13,1.13Zm68.93-5.65v0Zm-90.4-2.26v-1.13l1.13-1.13,1.13,1.13v1.13L303.38,238l-2.45-.19,1.32-.94Zm22.6-4.52L326,233.5v1.13l-1.13,1.13c-2.11-1.77-2.11-1.62,0-3.39Zm-126.56,0h1.13l1.13,1.13v1.13h1.13l1.13,1.13,1.13,1.13L206.2,238l.57,2.26h-1.7l-1.13-1.13V238l-2.26-2.26h-1.13l-1.13-1.13-1.13-1.13v-1.13ZM290.95,229v1.13h-1.13l-1.08-2.43,2.2,1.3Zm-98.31,0v0Zm99.44-10.17,1.13,1.13c.86,1.5.73,1.21,1.13,3.39l1.13,1.13v1.13l1.13,1.13,1.13,1.13V229l-1.13,2.26v-3.39l-1.13-1.13-1.13-1.13-2.25-1.13-1.13-1.13-1.13-2.26-1.13-1.13c1.25-1.15-2-1.13,3.4-1.13Zm-7.91,5.65V222.2c-1.12-1.7-1.13,2.59-1.08-3.56l2.2,1.3v2.26c1.13,1.71,1.14-2.58,1.08,3.56l-2.2-1.3Zm142.38-6.78.34.34s-.45-.23-.34-.34ZM172.3,206.38l1.13,2.26,1.32.94-2.45-.94-1.13-1.13,1.13-1.13Zm-7.91-2.26.34.33s-.45-.22-.34-.33Zm3.39,0,1.13-2.26L170,204l-2.77,1.22.56-1.13Zm-3.39-4.52h0Zm90.4-2.26h-1.13c-3.11.26-2.46.1-4.52,1.13v-1.13l1.13-1.13,1.13-1.13h1.13l1.13-1.13,2.25,1.13,2.45.19-1.32.94-2.26,1.13Zm-144.64-9v0Zm136.73-5.65,1.13-1.13h1.13c.27.2,3.75,2.26,0,2.26h-2.26v-1.13Zm-13.56,1.13h2.26l1.13,1.13h7.9L243.49,186c-2.06,1-1.42.86-4.52,1.13l-1.14,1.13h-1.13l-2.26,1.13H228.8l2.26-1.13c1.1-1-.14-.1,1.89-1.51.13-.09.64,0,.73-.39s.51-.24.76-.36l-1.13-1.13-1.13-1.13-1.31-.94,2.45.94Zm165.17-1.32L397,181.33l1.13-.75,1.51,1.13-1.13.75Zm.94-2.07.33.34s-.45-.23-.33-.34ZM396,179.26v0Zm-12.43-5.65,1.13-1.13c.27.2,3.75,2.26,0,2.26h-1.13v-1.13Zm-176.28-6.78h6.78l1.14-1.13V168H222l1.13,1.13L222,170.22c-3.57,0-4.06-.78-5.65,1.13h-5.65l-2.26,2.26-1.13-1.13,2.26-2.26v-1.13c-5.37,0-2.14,0-3.4-1.13l1.13-1.13ZM202.81,168h1.13v1.13h-1.13V168Zm57.63-10.17c-.11-.11.31-.32.33-.34l-.33.34Zm1.13-2.26.34.33s-.45-.22-.34-.33Zm72.32-9-2.26-1.13V142l1.13-1.13,1.14-1.13,1.13,1.13L333.89,142v1.13l1.13,2.26.94,1.32-.75,1.13-1.32-1.32Zm-75.71-1.13h-1.13l-1.08-1.3,2.2,1.3ZM726,503.57h-1.14l1.14-1.13,1.13-1.13h2.26l-2.26,1.13L726,503.57Zm22.59-18.08v-1.13l1.14-1.13v-4.52h1.13V490l1.32.94-2.45-.94v-2.26l-1.14-2.26Zm1.14-11.3v2.26l-1.14-1.13-1.08-2.43,2.21,1.3ZM737.3,467.4h0Zm-5.65-10.17v-5.65h1.13v1.13c1.15,1.25,1.13-2,1.13,3.39.16,7.16.77,2.33,2.26,7.91-1.19.73.94,2-2-.18-1-.75-.88-1.09-1.44-2.08-.41-2.18-.27-1.88-1.13-3.39v-1.13Zm15.82-18.08v1.13c-1.14,2.38-.83,1-1.13,4.52-5.76,0-1.88,0-3.39-1.13h-2.26V436.9l1.14-1.13,1.13-1.13h2.26c.2-.27,2.26-3.75,2.26,0l1.13,1.13.17,1.19-1.3,2.2ZM737.3,429v-1.13l1.13-1.13,1.36.23-2.48,2ZM678.54,380.4h1.13c.9.8-1.31,2,2.26,0v1.13l-1.13,1.13c-.2.27-2.25,3.75-2.25,0V380.4Zm-1.14-1.13h-1.13V377l1.13,2.26ZM744.08,316l2.25,4.52,1.13,1.13v1.13h2.26c0-3.75,2.05-.27,2.25,0l1.07,1.19c.18.21.82,1.06,1,1.28.7.95,1,1.5,1.34,2,.41,2.18.27,1.88,1.13,3.39l1.13,1.13v1.13l1.13,1.13v2.26c3.94,1.05,2.54.43,4.52,3.39v1.13l1.13,1.13v1.13c1.91,1.6,1.13,2.08,1.13,5.65V351l2.26,2.26h1.13l1.14,1.13,1.13,2.26,1.13,2.26v1.13l1.14,1.13,2.25,3.39,1.13,1.13v1.13L778,369.1v5.65c1.87,1.56,1.13.8,1.13,4.52v1.13l1.08,2.43-2.2-1.3L774.59,377l-2.26-2.26H771.2c-1.4-1-.17.08-1.83-1.56-.19-.19-.94-.72-1.05-1.21s-.33-.42-.5-.62l-1.13-1.13c-1.15-1.25-1.13,2-1.13-3.39v-2.26l-1.13-2.26-1.13-1.13-3.39-3.39v-3.39c-.27-.2-3.74-2.26,0-2.26V351l-1.13-2.26v-1.13l-1.13-2.26-2.26-2.26L754.25,342v-1.13c-.27-.2-3.75-2.26,0-2.26v-1.13L752,335.2v-1.13l-1.13-1.13V331.8l-1.13-1.13v-1.13l-1.14-1.13v-2.26L747.47,325V323.9l-1.13-1.13v-1.13c-2.77-2-2.43-1.54-3.39-5.65l-1.07-1.3,2.2,1.3Zm-22.6-36.16V281h1.13l2.26,1.13v3.39l1.7,2.26-.56,1.13V290c2.18-.4,1.88-.27,3.39-1.13l1.13-1.13c3,1.5,3.7,1.73,6.78,0l1.13-1.13c3.94,1.05,2.54.43,4.52,3.39h3.39l1.13-1.13h1.13l1.19-2.43,2.2,1.3h2.26v7.91l-1.13,1.13v1.13L752,299v1.13l-1.13,1.13v1.13l-1.13,2.26c-1.17,4.38-1.53,4.4-6.79,4.52-3.34-1.61-3.15-1.13-7.9-1.13h-1.13l-1.13,1.13h-1.13c-.21.27-2.26,3.75-2.26,0h-2.26L726,308.08h-2.26c-5.37,0-2.14,0-3.39-1.13h-2.26L717,305.82H714.7l-2.26-1.13-2.26-1.13-1.13-1.13h-6.78l-1.13,1.13-2.26,2.26v4.52l-2.25,2.26h-1.13l-2.25-2.26H692.1L691,309.21h-1.13c-5.37,0-2.14,0-3.39-1.13h-1.13l-1.13-1.13v-1.13l-2.25-2.26H680.8l-1.13-1.13h-2.26c-2.22,0-5.65.82-5.65-1.13h-1.13c-3.62-2.42-.79-1.86-5.82-2.32l1.3-2.2,2.26-2.26,1.13-1.13v-2.26L667,288.64l2.48-2c-1.35-.94.73.08-2.12-1.26-.1,0-2-.8-2.39-1h-3.39l-1.13,1.13h-9c-1.76,2.11-1.62,2.11-3.39,0h-4.52c-1.25,1.15,2,1.13-3.39,1.13h-3.4l-2.25,1.13h-1.13l-1.13,1.13c-2.07,1-1.42.86-4.52,1.13-1.25,1.87-3.78,5.85-6.78,2.26h-5.65L613,290l2.26-2.26h2.26c1.76-2.11,1.62-2.11,3.39,0H622c1.25-1.16-2-1.13,3.39-1.13v-1.13l1.13-1.13h1.13l1.13-1.13v-1.13c2.48-3.7,2.24-2,1.19-6.68l2.2-1.23V273l3.39-3.39h2.26l1.13-1.13,2.26-1.13,1.13-1.13v-3.39l-1.07-1,2.2-1.23H648l2.26,1.13h3.39l2.26-2.26h1.13l1.13-1.13h1.13l1.13-1.13c.21-.27,2.26-3.75,2.26,0h1.13l2.26,2.26v1.13l1.13,1.13L669.5,264l2.26,2.26,3.39,2.26,3.23.14,2.42,3.25,2.26,1.13,2.26,1.13v3.39c.33.54,2.52-.85-.14,2-1.3,1.39-1.18.9-3.25,1.39H674c.41,2.18.27,1.89,1.13,3.39h1.13l1.13,1.13c2.18.4,1.88.27,3.39,1.13h2.26l1.13-1.13-1.13-2.26a50.47,50.47,0,0,0,5.65-3.39V278.7l1.13-2.26v-1.13l-1.13-1.13V273c.2-.27,2.26-3.75,2.26,0h1.13l2.26,1.13c-.89-3.34-.46-1.83-2.26-4.52H691l-1.13-1.13h-2.25l-1.13-1.13v-1.13l-1.13-1.13h-3.39l-2.26-2.26c-.86-1.51-.73-1.21-1.13-3.39l-1.14-1.13h-1.13l-1.13-1.13L674,256.1v-4.52h2.26l1.13-1.13v3.39c2.25,0,4.52-.82,4.52,1.13v1.13l1.13,1.13,1.13,1.13c1.79.95,3.14,1.82,5.07,2.84,4.51,2.36,1-1.3,4,2.81h1.13l3.39,2.26c0,5.72.76,5.81,1.13,10.17l2.26,1.13,1.13,1.13-1.13,1.13c.19.18.45.45.56.56l1.7,1.7v1.13l1.13,1.13v2.26c2.58.6,2.6.88,5.65,1.13.44-5.25-1.21-2,2.26-4.52h1.13l1.13-1.13h1.13v0l-1.13-2.26c-.21-.18-.53-.7-.62-.51s-.75-.57-1.21-1c-1.65-1.66-.53-.43-1.56-1.83l-1.13-1.13,2.26-1.13c.07-.07,1.07-1.18,1.68-1.77.22-.22.95-1,1.19-1.18,3.86-2.91,2.23-1.09,2.78-.44l2.26,1.13c.27.2,3.75,2.26,0,2.26v2.26l1.13,2.26,1.32-.94,1.13.75-2.45,1.32Zm7.91-10.17c-5.26.44-2-1.22-4.52,2.26h4.52v-2.26Zm79.1-17-3.84,2.94c-.14.09-.46.29-.68.44l1.13,1.13,2.2,1.23.06,2.16,1.13,1.13h1.13l2.26,1.13v4.52c2.68-1.8,1.17-1.36,4.42-2.2l1.23,2.2,1.13,1.13c.14.32,2.94.84-1.15,2.08a21.19,21.19,0,0,1-4.5.19v3.39h2.26v2.26l1.13,1.13v7.91H813l-1.13,1.13h-4.52l-1.13-1.13-1.13-1.13L804,283.22c-5.37,0-2.14,0-3.39-1.13-.25-.39-1.85,1.52-1.05-3.18.32-1.89.73-1.65,2.18-2.47v-2.26l2.26-3.39h-1.13l-2.26-2.26L797.19,264l-1.14-1.13v-1.13a7.32,7.32,0,0,1-.41-.71l-3-6.07,1.13-2.26,1.13-1.13v-1.13h1.13l2.26-1.13,1.13-1.13,1.13-1.13h2.26l2.25-1.13c1.51-.86,1.21-.73,3.4-1.13,2.25,0,4.52-.82,4.52,1.13l2.26,2.26,1.13,1.13,1.14,1.13,1.13,1.13v1.13h-1.13l-1.14-1.13h-1.13c-.2.27-2.26,3.75-2.26,0h-2.26l-2.25,1.13Zm33.9,2.26-1.13,1.13-2.32,3.56-2.2-1.3h-3.39l-1.13-2.26v-2.26l1.13-1.13v-1.13l1.13-1.13h1.13l1.13-1.13,2.26-1.13c1.76-2.12,1.62-2.12,3.39,0l-1.13,1.13v1.13c1.78,1.24,4.09,2,1.13,4.52Zm61-9v2.26h-4.52c1.33-1.16-.87-.25,1.88-1.51,2.49-1.14.6-.27,2.63-.75Zm-7.91,1.13h1.13v1.13H895.5v-1.13Zm-5.65,1.13h-1.13l-1.14,1.13-1.13,1.13v1.13h-1.13l-1.13-1.13,1.13-1.13,2.26-2.26c1.25-1.16-2-1.13,3.39-1.13l2.43.62-2.43.51-1.13,1.13Zm-127.69,0v-2.26l2.26-1.13h-2.26L761,245.93h-2.25l-1.13,1.13h-2.26l-1.13,1.13h-1.13l-2.2,1.22,1.07,1c1.25,1.16-2,1.13,3.39,1.13l1.13,2.26h-3.39L752,255h-1.13l-1.13,1.13h-2.26l-1.13-2.26-1.13-1.13h-1.13v-3.39h-2.26l-2-2.49c-4.17,1.28-2.77.66-4.75,3.61-1.16,1.25-1.13-2-1.13,3.39L732.78,255h-1.13l-2.2,1.22-.06,3.3-1.13,1.13-1.3,2.21.17,1.19v1.13l1.13,1.13,1.13,1.13,1.13,1.13h5.65c0,3.75,2.06.27,2.26,0l2.25-1.13,1.14-1.13h1.13l1.13-1.13c6,0,6.67.05,11.29,1.13l2.26,2.26h2.26c2,1.5-2.51,1,2.37,1.14,5.59.12,1.92-.12,3.28-1.14h1.13c0,1.94-.27.88,1.36.75,2.29-.18.65.29,2-.75h1.13l1.13-1.13h1.14c3.74,0,.26-2.06,0-2.26L773.4,263l-2.2-1.23c-1.69-1.46.87.44-1.82-1.57-1.25-.94-1.7-1.15-2.7-1.82l-2.25-1.13c-.2-.18-.5-.74-.59-.54s-.49-.43-.62-.51A12.19,12.19,0,0,0,761,255l-2.25-1.13-1.13-2.26c4-1.05,2.54-.43,4.52-3.39ZM648,222.2l.34.34s-.45-.22-.34-.34Zm360.47-4.52-1.13,1.13-1.14,1.13L1004,222.2h-1.13l-1.13,1.13h-2.26l-1.13,1.13-1.13,1.13h-1.13l-1.13,2.26h-4.52l2.26-1.13,1.13-1.13h1.13l1.13-1.13h1.13l1.13-1.13,1.13-1.13,2.26-1.13,1.13-1.13,1.13-1.13,1.13-1.13,1.13-2.26,1.14-1.13V212l1.13-1.13c2.42,0,.23,4,0,6.78Zm-278-24.86.33.33s-.44-.22-.33-.33Zm11.3-4.52,1.13,1.13v1.13c.06.13,3.35-.56-.36,1.77-1.55,1-1.33.34-3,.49h-1.13l-1.13-1.13c-1.8-2.69-1.37-1.17-2.26-4.52,3.44.08,4.12.51,6.78,1.13Zm9-3.39h3.39V186l1.13,1.13v1.13h-1.13L752,187.17,750.86,186l-.94-2.45.94,1.32Zm-37.29-10.17L711.31,177l-3.4,2.26-5.65,3.39c.86,1.51.73,1.21,1.13,3.39.27.2,3.75,2.26,0,2.26v2.26c3.46.8,4.35,1.76,6.78,3.39h2.26l2.26-1.13h3.39l2.26-1.13h7.9l2.45.19-1.31.94-2.26,1.13L726,195.08h-3.4l-2.25-1.13h-1.13L717,195.08h-3.39l-1.13,1.13-1.13,2.26,1.13,2.26h1.13c.27.2,3.75,2.26,0,2.26v1.13l-2.16,1.07-1.23-2.2-2.26-1.13L705.66,203l-1.13,1.13-2.26,2.26v3.39c1.13,1.71,1.13-2.58,1.13,3.39H700l-1.13,1.13-1.13,1.13h-2.26c-3-1.44-1.21-1-5.65-1.13h-2.25l-1.13,1.13h-1.13l-2.26,1.13H680.8l-1.13,1.13h-1.13a15.59,15.59,0,0,0-1.81-1.59c-3.4-2.42,3.19,1.11-1.59-.67h-2.25l-1,1.07-1.22-2.2H669.5c.56,1.3,1.87,5.85-1.13,2.26v-1.13H665l-1.13-2.26h2.26l1.13,1.13h1.13l1.13-1.13V212l2.26,1.13h1.13L674,212l1-.62,2.43.62h2.26c.51-2.14.27-1.86,1.13-3.39h5.65l1.82-7.22c0-.41.29-.46.44-.69V199.6l1.13-1.13H691c.2-.17.46-.44.59-.54l3.93-2.85c-.58-2.19-.21-1.75-1.13-3.39-1.53-.86-1.25-.62-3.39-1.13l-1.13-1.13v-2.26L691,186v-2.26l2.26-1.13,2.25-2.26h1.13l1.13-1.13H700l1.86-1.52c.17-.15.47-.35.63-.5a8.27,8.27,0,0,0,2-2.5v-1.13l1.13-1.13,1.13-1.13,1.13-1.13h6.79l1.13,1.13,1.13,1.13,1.14,1.13h-2.26l-2.26,1.13Zm29.38-10.17,1.13,1.13h1.13v1.13h-1.13l-1.13-1.13v-1.13Zm155.94-5.65V160l-2.48-2,2.48.9Zm17-9v-1.13c.2-.27,2.26-3.75,2.26,0l1.13,1.13V151l-1.13,1.13H917L915.84,151v-1.13Zm-18.08-2.26h1.13v1.13h-1.13v-1.13Zm85.88-23.73h-2.26L980.25,125l-1.31,2.2-6.61.06-2.26,1.13h-2.26l-2.25,1.13h-1.13c-2.06-1-1.41-.87-4.52-1.13h-5.65L952,129.54h-4.52l-1.13,1.13h-7.9l-1.13,1.13H935c-1.06.74.09.16-2.12,1.27-.39.2-1.77.69-2.4,1-5.37,0-2.14,0-3.39,1.13l1.13,1.13L926,137.45c-1.59,1.91-2.08,1.13-5.65,1.13-1.88,0-3.86-.09-5.71-.06-.56,0-2.85,0-3.28.11-2.34.45-1.05.13-2.31,1.08l2.26,4.52c5.37,0,2.14,0,3.39,1.13l-.05,1.3-2.2-1.3h-2.26l-1.13-1.13h-3.39c-1.15-1.25-1.13,2-1.13-3.39h-1.13v2.26c-.19.27-2.25,3.75-2.25,0h-3.39v2.26h-3.39v2.26H891v-2.26l1.14-1.13L889.85,142l-1.13,2.26h-1.14l-1.13,1.13H884.2l-1.13,1.13,3.39,4.52-2.26,2.26v1.13l1.13,2.26h4.52v1.13l-2.26,1.13v2.26l1.08,1-2.2,1.22c-2.94,2-4.78,4.17-9,4.52v-1.13l1.13-1.13L884.2,160l-1.13-2.26-1.13-1.13v-4.52c-.4-4.86.16-2-2.25-5.65l2.25-2.26V143.1L880.81,142h-11.3l-1.13,1.13-1.14,1.13L865,146.49l-1.14,1.13-2.26,1.13v1.13l1.31,2.2-1.31,2.32c5.37,0,2.14,0,3.4,1.13a6.49,6.49,0,0,1,2.08,1.44c2,2.7.85.45.18,2-1.79.89,2.08,1.16-3.39,0l-1.13-1.13h-2.26l-1.13-1.13h-2.26l-2.26-1.13h-2.26l-1.13-1.13H839v-1.13c-1.51-.86-1.21-.73-3.39-1.13h-2.26l1.13,1.13,1.13,1.13H839l1.13,2.26v1.13c-3.83,1-2.92,1.91-4.52,0l-1.13-1.13h-1.13l-1.13,1.13H830l-1.13,1.13h-4.52l-6.74,1.3c-1.37-3.75,2.41-1.79-3.43-2.43l-2.83,1.13h-2.82L807.36,160l-6.78,1.13-1.13,1.13h-2.25l-2.26,2.26c0,2-3.43,1.13-5.65,1.13l-2.43-1.19,1.31-2.2c5.36,0,2.14,0,3.39-1.13L790.41,160c-3.34-1.61-3.15-1.13-7.9-1.13,2,3.56.8,1.36,0,2.26v3.39c2.11,1.77,2.11,1.63,0,3.39h-2.26L778,166.83h-1.13L775.72,168h-1.13l-1.13,1.13H771.2l-1.13,1.13h-1.14v2.26l1.14,1.13v1.13h-3.4l-2.25-1.13h-2.26L761,172.48c-5.36,0-2.14,0-3.39,1.13l1.13,2.26L759.9,177h-3.39l-1.13-1.13c-5.36,0-2.14,0-3.39-1.13l-1.13-1.13v-1.13l-.62-1,.62-2.43h-1.13L748.6,168h-1.13v-1.13h3.39L752,168h2.26c2.22,0,5.65-.82,5.65,1.13h7.91l1.13-1.13c2.18-.4,1.88-.27,3.39-1.13l1.14-1.13c-1-3.9-2-4.12-6.79-4.52L765.55,160,761,158.92l-1.13-1.13h-2.26l-1.13-1.13h-5.65l-1.13-1.13h-4.52l-2.26-2.26h-2.26l-1.13,1.13H735c-.63-1.42-1.65.58-.13-1.37,1.87-2.4.13-.29,2.39-.89L735,151l-1.13-1.13h-4.52l-1.13-1.13H726L723.74,151l-1.13-1.13h-6.78L713.57,151h-5.65l-2.25,1.13-1.13,1.13h-7.9c-3.62,2.42-.79,1.85-5.65,2.26h-1.13v2.26l-2.25,1.13v-1.13l-1.13-1.13h-1.13c-1.51.86-1.21.73-3.39,1.13V160h2.25c1.51-.86,1.21-.73,3.4-1.13V160l-1.13,1.13h-2.26l-1.2,1.05-.62.51-3.82,3h-1.14l-1.13,1.13L674,170.22l-1.13,1.13-2.26,2.26-1.14,1.13c-2.18.4-1.88.27-3.39,1.13L665,177l-1.13,1.13c-1.25,1.15,2,1.13-3.39,1.13-1.51.86-1.2.73-3.39,1.13l-1.13,1.13-2.26,1.13-1.13,1.13h-1.13l-1.13,1.13h-1.13L648,186v4.52l1.13,2.26v3.39l1.13,1.13v2.26c1.51.86,1.21.73,3.39,1.13l2.26,1.13h1.13l1.13-1.13c3.34-.89,1.84-.46,4.52-2.26l1.13-1.13,4.48-1.27,0,2.4,1.13,1.13,1.14,2.26,1.13,2.26,2,2.48-.9,2-1.13,1.13-2.26,1.13V212l-1.13-1.13-1.13-2.26v-1.13l-1.13-2.26V203l-4.52,1.13-1.13,1.13-2.48,2c.7,6,1.08,1.76,2.48,7v3.39c0,2-2.26,1.13-4.52,1.13l-1.13,1.13h-4.52l-1.13,1.13H648l-1.13,1.13v1.13l-1.14,1.13v1.13l-2.25,2.26a25.57,25.57,0,0,1-5.65,1.13l-1.13,1.13v1.13l-1.13,1.13-2.26,1.13a5.93,5.93,0,0,1-2,2.47c-1.64,1.09-.25,1.21-1.44-.21-4.77-.41-3.9-2.1-5.65,0l1.13,1.13v2.26H622L620.91,238h-2.26l-1.13,1.13h-2.26v2.26l1.13,1.13a25.38,25.38,0,0,1,5.65,1.13l2.26,2.26v1.13l1.13,1.13,1.13,1.13c1,1.36,1.26-2.31,1.14,3.28-.1,4.88.36.39-1.14,2.37v3.39c-1.24,1.78-2,4.09-4.52,1.13H606.22l-1.13-1.13H604l-1.13,1.13H601.7l-1.13,1.13c-2,0-.08,3.09,0,6.78.27.2,3.75,2.26,0,2.26-.13,5.93-1.16,4.32-2.26,9l1.14,1.13c1.3,2.06,1.13.72,1.13,5.65h7.91a16.89,16.89,0,0,1,2.26,5.65l-1.13,1.13c-2.46,10.57-8,4.32-10.17,12.43l-1.14,1.13c-.85,1.51-.72,1.21-1.13,3.39v2.26c-.27,3.1-.11,2.45-1.13,4.52l-2.26,2.26-3.39,2.26-1.13,1.13H587l-2.25,2.26V325l-1.13,1.13-3.14,3.63-.24,3.14-1.13,1.13L578,336.33l-1.13,1.13v1.13l-1.13,1.13v1.13L574.58,342v1.13l-1.13,1.13c-1.44,3-1,1.21-1.13,5.65l1.13,1.13c1,2.06.86,1.41,1.13,4.52v3.39c1,1.49,1.27-2.45,1.14,3.28-.1,4.37.38,1.1-1.14,2.37v2.26L573.45,368v3.39l-1.13,1.13-1.13,2.26v1.13c.86,1.51.73,1.21,1.13,3.39v5.65l3.33,2.32c.16.12.48.43.6.53s.39.36.59.54l1.13,1.13,1.13,1.13,1.13,1.13v1.13l3.39,3.39c1.18,2.46.53,2,1.36,4.3s.72,1.65,2,3.62l1.13,1.13h1.13l1.13,1.13,1.13,1.13,2.26,2.26,5.65,4.52,1.13,1.13h1.13l1.13,1.13h4.52l1.13-1.13h1.13l1.13-1.13h4.52c.2-.26,2.26-3.75,2.26,0h3.39l1.13,1.13a25.38,25.38,0,0,0,5.65-1.13l1.13-1.13h1.13l1.13-1.13h1.13c1.1-1-.14-.1,1.88-1.5.13-.09.64,0,.74-.39s.51-.24.76-.36h4.52c1.25-1.16-2-1.13,3.39-1.13h1.13l1.13,1.13L648,412l1.13,1.13v2.26l2.25,2.26h2.26l1.14-1.13h4.52l1-1.07,1.23,2.2v2.26h-1.13l-1.13,1.13h2.26v-1.13l2.25,1.13c.27.2,3.75,2.26,0,2.26v4.52L662.72,429v6.78c-.85,1.51-.73,1.21-1.13,3.39a16.74,16.74,0,0,0,2.25,5.65l3.4,3.39,3.39,4.52,1.13,1.13v2.26l1.13,1.13v3.39l1.13,1.13v1.13l1.13,1.13v2.26l1.13,1.13c-.27,3.11-.11,2.46-1.13,4.52l1.13,1.13v2.26l1.13,1.13v1.13c2.11,1.77,2.11,1.62,0,3.39v3.39c-3,2-2.34.57-3.39,4.52L672.89,490v2.26l-1.13,2.26c-.4,4.85-1.13,7-1.13,13.56l1.13,1.13,1.13,2.26,1.13,1.13v1.13l1.13,1.13V516l1.13,1.13c.4,2.18.27,1.88,1.13,3.39l1.14,1.13v1.13l1.13,1.13v7.91l1.13,1.13v2.26c1.16,1.25,1.13-2,1.13,3.39V542l1.13,1.13v2.26l1.13,1.13,3.4,4.52,1.13,1.13v2.26l1.13,1.13a16.9,16.9,0,0,0,2.26,5.65l1.13,1.13v3.39l-1.13,1.13V568l1.13,1.13v1.13l1.13,2.26h1.13l1.13,1.13h6.78l2.26-1.13h1.13l1.13-1.13h5.65l1.13,1.13,4.52-1.13,1.13-1.13h3.39l1.13-1.13,3.39-2.26,3.4-3.39,3.39-4.52,1.13-1.13,1.13-2.26,1.13-1.13v-1.13l1.13-1.13,1.13-1.13,2.26-2.26v-2.26l1.13-2.26c-.1-4.44.3-2.65-1.13-5.65l3.39-2.26,1.13-1.13h2.26l1.13-1.13,1.13-1.13,1.13-1.13v-7.91L752,521.65v-2.26l-1.13-1.13v-1.13l-.93-2.05,5.45-4.73,1.13-1.13,1.13-1.13c4.33-6.47,6.15-1.9,10.17-7.91l1.13-1.13,1.14-2.26,1.13-2.26v-2.26L770.07,490v-9l1.13-1.13c-.53-6.42.38-.61-1.73-5a21.7,21.7,0,0,1-1.66-5.12l-1.13-1.13V467.4c0-5.36,0-2.14,1.13-3.39v-1.13l-1.13-1.13v-3.39l1.13-2.26V455l-1.32-.94,1.32-2.45,1.13-1.13v-1.13l1.14-1.13v-2.26l2.25-2.26,1.14-1.13,1.13-1.13,2.26-3.39L778,436.9l3.39-4.52,3.39-3.39,1.13-1.13,1.13-1.13,2.26-1.13,2.26-2.26,2.25-3.39,2.26-2.26,2.26-4.52,1.13-1.13v-1.13l1.13-1.13c.82-3.51,1.44-3.27,2.26-6.78l1.13-1.13v-1.13l1.13-1.13v-1.13l1.13-1.13V394l1.13-1.13c0-3.57.78-4.06-1.13-5.65H805.1c-2.06,1-1.41.86-4.52,1.13l-2.26,1.13c-4.44.1-2.65-.31-5.65,1.13l-1.13,1.13h-1.13l-1.13-1.13L787,391.7l-1.13,1.13c-4-1.05-2.54-.43-4.52-3.39l-1.13-1.13c-.8-.89-2,1.31,0-2.26v-1.13l1.48-.79c3.78-1.09,2.82-.1,7.56-2.61,1.25-1.15-2-1.13,3.39-1.13,2.18-.4,1.88-.27,3.39-1.13a6.9,6.9,0,0,1,2.12-1.27c.39-.2,1.77-.69,2.4-1l1.13-1.13,1.13-1.13a25.75,25.75,0,0,0,5.65-1.13l1.13-1.13,1.13-1.13,1.13-1.13L813,369.1l1.13-1.13h1.13l1.13-1.13h2.26c2.37-.64.7.39,2.42-1l2.09-2.42,1.13-1.13h1.13l1.13-1.13v-2.26h2.26l1.13-2.26v-3.39l3.39-2.26,1.13-1.13,1.13-2.26,1.13-1.13v-2.26l-2.26-3.39-1.13-1.13c-2-1-3.66-1.3-5.65-2.26l-2.26-2.26v-5.65h-1.13l-1.13,1.13-4.52,4.52-1.13,1.13c-1.59,1.91-2.08,1.13-5.65,1.13h-2.26l-1.13-1.13V335.2c0-2.22.82-5.65-1.13-5.65-.18.19-.48.21-.56.56l-1.7,1.69L804,330.68v-3.39l-3.39-3.39-1.13-2.26-1.13-1.13v-1.13l-1.13-1.13v-1.13l-.17-1.19,1.3-2.2h2.26c3.95,1.05,2.54.43,4.52,3.39l1.13,2.26,1.13,1.13,1.13,2.26,2.25,1.13,1.13,1.13,1.13,1.13h1.13c.41.19,2.3.95,2.4,1,2.85,1.35.77.33,2.12,1.27h2.26l2.25-1.13h1.13l1.13-1.13,1.13,1.13,1.13,1.13v1.13L830,331.8h3.39l2.26,1.13h5.65l1.13,1.13c3.05-.25,3.07-.53,5.65-1.13h11.3l1.13,1.13,1.13,1.13,1.13,2.26,1.13,1.13,4.78,4.27,3.14.25,1.3-1.07-1.3,2.2h-2.26v2.26l4.27,4.77c3.75-.55,2.39-.24,4.77-1.38l1.13-1.13v-3.39h1.13v4.52c1,1.38.57-.26.75,2,.13,1.63,1.19,1.35-.75,1.35v2.26l1.13,1.13a38.91,38.91,0,0,0,1,9.14c.95,4.56,1.48,4,2.37,7.8l1.13,1.13v1.13l1.13,1.13a25.86,25.86,0,0,1,1.14,5.65l1.13,1.13V386l2.26,2.26v2.26l1.13,1.13V394l1.13,1.13v2.26l1.13,1.13v1.13l1.13,1.13,2.26,1.13c2-3.8.1-2.1,3.39-4.52.18-.2.47-.76.54-.59s.43-.49.51-.62a13,13,0,0,0,1.21-2.18l1.13-1.13,1.13-2.26c-1-1.39-.57.26-.76-2-.13-1.63-1.19-1.35.76-1.35v-2.26l1.13-1.13v-4.52c-1-1.32-1.14,2.19-1.25-3.39-.1-4.59.33-2.61,1.25-3.39.2-.17.49-.74.59-.55s.46-.44.59-.54,1-.83,1.26-1c2.54-1.56-.33-.35,3.22-1.3l1.13-1.13v-1.13l2.26-2.26,5.65-5.65,3.39-3.39h1.13l1.13-1.13,2.26-2.26.06-3.3,2.2-1.23h6.78l1.13-1.13H943l1.13-2.26,1.13-1.13h1.13l1.13,1.13v1.13l1.13,2.26V351l5.65,5.65,1.13,2.26c1,2.06.87,1.42,1.13,4.52.27.2,3.75,2.26,0,2.26v4.52c1.53.85,1.25.62,3.4,1.13l2.25-2.26c2.69-1.8,1.18-1.37,4.52-2.26,1.44,3,1,1.21,1.13,5.65l1.13,2.26v3.39l1.13,1.13v1.13l1.13,1.13v5.65c2,3.57.8,1.36,0,2.26v6.78l-1.13,1.13v4.52h1.13l2.25,2.26,1.13,1.13,1.13,2.26,1.13,1.13v2.26c1.15,1.25,1.13-2,1.13,3.39v3.39l1.13,1.13,1.13,2.26c1,1.11.1-.14,1.5,1.89.1.13.33.91.39.74s.24.51.37.76c3.49,2.34,2.51,3.38,6.78,4.52l2.25-2.26-1.13-1.13v-1.13l-2.26-2.26c0-5,.59-6.59-1.13-10.17l-2.26-2.26-1.13-1.13-2.26-2.26c-4.07-1.09-3-.1-3.39-4.52l-1.13-1.13v-1.13l-1.13-2.26h-2.26c0-5.39.77-4.69,1.13-9l1.13-1.13V386l1.13-2.26v-2.26h2.25c1.33,3.58-2.45,1.62,3.4,2.26l3.39,3.39v1.13l1.13,1.13,1.13,2.26,1.13,1.13h2.25l2.45,1.32-1.32.95v4.52l2.26-1.13,1.13-1.13,2.26-2.26,1.13-1.13,2.26-1.13,1.13-1.13,2.26-1.13,1.13-1.13,1.14-1.13c0-2.25-.82-4.52,1.13-4.52v-4.52l-1.13-2.26v-3.39l-2.26-2.26v-1.13L1004,369.1l-3.39-3.39-2.26-2.26v-1.13l-2.26-2.26c.1-4.44-.31-2.65,1.13-5.65l2.26-2.26c2.46-3.68,1.86-2.52,5.65-4.52,3,.8.93-.09,3.39,1.13l1.13-1.13v4.52c.27.2,3.75,2.26,0,2.26h-2.26l-1.14,2.26v3.39l1.14,1.13h3.39l1.13-2.26,1.13-1.13v-1.13l1.13-1.13v-1.13l-1.13-1.13-.83-1.43a9.72,9.72,0,0,1-.3-3.09h2.26l1.14-1.13h3.39l1.13-1.13,1.13-1.13,2.26-1.13h3.39l1.13-1.13h3.39l4.52-3.39,1.13-1.13,1.13-1.13,2.26-2.26,1.13-1.13,2.26-2.26v-1.13l1.13-1.13c1.12-4.19,1.14-1.46,2.26-5.65l1.13-1.13,2.2-1.3.05-3.22,1.13-1.13c0-5.37,0-2.14-1.13-3.39l-1.13-1.13,1.13-1.13,1.13-1.13v-1.13l-1.13-1.13c1.19-2.77,1.19-.63,0-3.39l-2.25-2.26v-2.26l-1.13-1.13-1.13-2.26-1.13-1.13-1.13-1.13v-1.13l3.39-3.39,1.13-1.13,2.25-1.13,1.13-1.13,2.26-1.13v-1.13h-2.26c-1.51-.86-1.21-.73-3.39-1.13h-1.13l-3.26,2.42-2.4-2.42-1.13-1.13c-3.47-2.54-1.82.73-2.26-4.52,5.81-.13,3.25,1,5.65-2.26l1.13-1.13h1.13l3.39-3.39h2.26l1.13,1.13c-1.8,2.69-1.36,1.18-2.26,4.52.8.9,2-1.3,0,2.26h1.13l2.26-2.26h1.13l1.13-1.13h2.26c.2-.27,2.26-3.75,2.26,0h2.26l1.13,1.13v1.13l-1.13,1.13v3.39l2.25,1.13,2.17-1.07,1.23,2.2v1.13l-1.13,2.26v1.13l1.13,1.13c-1.45,3-1,1.2-1.13,5.65h3.39l1.13-1.13H1074l1.13-1.13,2.25-1.13,1.14-1.13v-2.26c-1.87-1.56-1.14-.8-1.14-4.52v-1.13l-2.25-2.26c-2.48-3.7-3-1.57-3.39-6.78,3.46-.8,4.34-1.76,6.78-3.39,0-5.37,0-2.15,1.13-3.39l3.39-3.39,1.13-1.13,2.26-1.13,1-1.07,1.22,2.2h4.52l1.13-1.13h1.13l1.13-1.13,2.26-2.26,1.13-1.13,1.13-1.13,2.25-2.26,1.13-1.13,3.39-3.39a50.47,50.47,0,0,1,3.39-5.65l4.52-4.52v-2.26c0-5.37,0-2.14,1.13-3.39v-1.13c-.27-.2-3.74-2.26,0-2.26.4-2.18.27-1.88,1.13-3.39l1.13-1.13v-1.13c-1-1.38-.57.26-.76-2-.13-1.63-1.19-1.35.76-1.35l-1.13-1.13-1.13-1.13-3.26-2.42c-5.95.29-3.38-.86-5.78,2.42l-1.13-1.13-1.13-1.13-2.26-1.13H1100l-1.13-1.13,1.13-1.13,1.13-1.13,4.52-2.26,3.39-3.39,2.26-1.13,1.13-1.13,2.26-1.13,2.26-2.26,2.26-1.13,1.13-1.13,2.26-1.13,1.13-1.13h21.48c0-2,3.43-1.13,5.65-1.13H1152c1.14,1.52,1.13-2.38,1.13,3.39,3.5-.3,2.14,0,4.52-1.13h7.9v-2.26h-1.13v-1.13l1.13-1.13,1.13-1.13h1.13l1.13-1.13c3.28-2.19,1.51-2.28,5.64-3.39l1.13-1.13h7.91v3.39l2.2,1.3,2.32-1.3,1.13-1.13h1.13l1.13-1.13h3.39c.5-5.88-1.08-2,2.26-3.39l.17,1.18-1.3,2.21v1.13l-2.26,2.26h-2.26l-1.13,1.13-3.39,2.26-1.13,1.13h-1.13l-1.13,1.13-1.13,1.13-2.26,2.26c-1.51.86-1.2.73-3.39,1.13l-1.13,1.13h-2.26l-1.13,1.13c-.88,2.44-.53,1-1.82,2.7s-.91.5-1.57,3l-1.13,1.13v4.52l1.13,1.13v3.39l1.13,2.26v2.26l1.13,1.13c0,3.72-.73,3,1.13,4.52h1.13l3.39-2.26,1.13-1.13v-2.26l1.13-1.13c1.51-.86,1.21-.72,3.39-1.13l1.13-2.26,1.13-2.26,1.13-1.13h4.52l-1.13-4.52,2.25-2.26c1.64.92,1.19.54,3.39,1.13v-2.26l-1.13-1.13-1.32-.94,1.32-2.45v-1.13h-2.26c-.27-.2-3.74-2.26,0-2.26l2.26-2.26,1.13-1.13v-2.26h5.65l1.13-1.13h1.13l2.26-1.13v2.26l2.25-1.13,1.13-1.13h3.39c.2-.27,2.26-3.75,2.26,0,2.18.4,1.88.27,3.39,1.13h2.26l2.26-1.13,1.13-1.13h1.13l1.13-1.13a16.8,16.8,0,0,1,5.65-2.26l1.13-1.13h2.26l1.13-1.13a25.38,25.38,0,0,0,5.65-1.13l1.13-1.13h1.13l1.13,1.13h5.65v-2.26l-1.13-1.13V177l-2.26-1.13v-1.13h2.26l1.13-1.13v-1.13l2.26-1.13c-2-3.56-.8-1.36,0-2.26h1.13l1.23,2.2,8.94.06,1.13,2.26,1.13,1.13h3.39l1.13,1.13h4.52l.06-2.16,2.2-1.23c0-2,2.27-1.13,4.52-1.13l2.25-3.39a16.75,16.75,0,0,1-5.64-2.26H1274l-1.13-1.13h-2.26l-1.13,1.13-1.13-1.13-2.25-2.26h-3.4l-1.13-1.13h-1.13l-1.13-1.13h-2.26l-1.13-1.13h-1.13l-1.13-1.13c-5.36,0-2.14,0-3.39-1.13l-1.13-1.13h-3.4l-1.13-1.13h-4.52l-1.13-1.13h-19.21l-1.13,1.13,1.13,1.13,1.13,1.13-1.13,1.13h-3.39l-1.13-1.13H1213l-1.13-2.26h3.39c0-2-2.26-1.13-4.52-1.13l-1.13,1.13h-2.26c-1.76,2.11-1.62,2.11-3.39,0h-13.56l-1.13,1.13h-1.13L1187,154.4h-3.39v-1.13l-1.13-2.26-1.13-1.13h-1.14l-1.13-1.13h-14.69c-1.59,1.91-2.08,1.13-5.65,1.13h-1.13l-1.14-1.13c-4.95-3.14-5.73,1.48-7.9-4.52h-3.39c-5.37,0-2.15,0-3.4-1.13h-9l-2.25-1.13c-1.73,0-4.13.17-5.74.09-.44,0-1.76-.06-2.13-.13-2.34-.45-1-.13-2.31-1.08,1.59-1.91,2.08-1.13,5.65-1.13l-1.13-1.13-1.13-1.13h-5.65c-1.51-.86-1.2-.73-3.39-1.13v1.13l1.13,2.26h3.4l-1.13,2.26L1117,143.1h-4.52c.72,1.55,1.85,1.92.26,3.69-2.18,2.42-2.38-.22-2.51-.3h-2.26c-.2.27-2.26,3.75-2.26,0h-9l-1.13,1.13h-3.39l-1.13-1.13c-1.64-.92-1.19-.55-3.39-1.13l-2.32,4.49-2.2,0-2.25-1.13c-4-1-4.72-1.42-3.4-4.52V143.1c-.9-3.4,0-2.48-3.39-3.39l-1.13-1.13h-10.17l-1.14-1.13h-3.39l-1.13,1.13-1.31,2.2-14.52.06-1.13-1.13c-1.2-1.44,1-.78-3.33-1.19-.89-.09-3.51,0-4.57,0-3,0-6,0-9.05,0h-1.13c-1.19-2.77-1.19-.63,0-3.39l-3.39,1.12c.74,1.18.13-.51,1.13,2.27h-3.39c-2.78-1.29.09-.16-3-.74-1.19-.22-.17.27-1.56-.39h-2.25v2.26h-4.52c-1.24.93.16.83-2.26,1-3.93.31-1.26.17-2.25-1,0-2,2.26-1.13,4.52-1.13l1.13-1.13h2.26l1.13-1.13a30.11,30.11,0,0,1,9-2.26l2.25-1.13h1.13l1.13-1.13v-1.13l-1.13-2.26-4.52-1.13-1.13-1.13h-13.56l-1.13,1.13-1.13-1.13V125h-4.52c-1.33-3.58,2.45-1.62-3.39-2.26h-7.91Z" transform="translate(-48 -25.56)"/><path class="cls-2" d="M986.47,281a17.54,17.54,0,1,0-17.54-17.54A17.57,17.57,0,0,0,986.47,281Z" transform="translate(-48 -25.56)"/><path class="cls-2" d="M754.35,302.07a7,7,0,1,0-7-7A7,7,0,0,0,754.35,302.07Z" transform="translate(-48 -25.56)"/><path class="cls-3" d="M664.2,253.83a7.8,7.8,0,1,0-7.8-7.8A7.81,7.81,0,0,0,664.2,253.83Z" transform="translate(-48 -25.56)"/><path class="cls-2" d="M1109.46,297a8.54,8.54,0,1,0-8.54-8.54A8.55,8.55,0,0,0,1109.46,297Z" transform="translate(-48 -25.56)"/><line x1="346" y1="421.44" x2="382" y2="395.44"/><line class="cls-4" x1="713" y1="269.44" x2="917" y2="244.44"/><path class="cls-4" d="M748,298l-2-.13" transform="translate(-48 -25.56)"/><path class="cls-5" d="M742.21,297.62l-66.32-4.36" transform="translate(-48 -25.56)"/><path class="cls-4" d="M674,293.13l-2-.13" transform="translate(-48 -25.56)"/><line class="cls-4" x1="713" y1="269.44" x2="956" y2="165.44"/><path class="cls-2" d="M1031,210a27,27,0,1,0-27-27A27.07,27.07,0,0,0,1031,210Z" transform="translate(-48 -25.56)"/><line class="cls-6" x1="997" y1="184.44" x2="1057" y2="258.44"/><line class="cls-4" x1="221" y1="42.44" x2="220" y2="42.45"/><line class="cls-7" x1="218.07" y1="42.48" x2="180.46" y2="42.92"/><line class="cls-4" x1="179.5" y1="42.93" x2="178.5" y2="42.94"/><text class="cls-8" transform="translate(96.72 20.92)">Land<tspan class="cls-9" x="0" y="30">L</tspan><tspan x="11.42" y="30">u</tspan><tspan class="cls-10" x="25.2" y="30">f</tspan><tspan x="32.77" y="30">t</tspan><tspan class="cls-11" x="0" y="60">W</tspan><tspan x="20.33" y="60">asser</tspan></text><line class="cls-4" x1="221" y1="11.44" x2="178.5" y2="11.94"/><line class="cls-12" x1="221" y1="73.44" x2="178.5" y2="73.94"/><path class="cls-2" d="M674.35,270.07a7,7,0,1,0-7-7A7,7,0,0,0,674.35,270.07Z" transform="translate(-48 -25.56)"/><path class="cls-1" d="M701,298" transform="translate(-48 -25.56)"/><path class="cls-4" d="M674,270l-.17,2" transform="translate(-48 -25.56)"/><path class="cls-13" d="M673.5,275.8l-1.16,13.31" transform="translate(-48 -25.56)"/><path class="cls-4" d="M672.17,291l-.17,2" transform="translate(-48 -25.56)"/><path class="cls-4" d="M675,257l-5-6" transform="translate(-48 -25.56)"/></svg>